<mxfile host="app.diagrams.net" modified="2023-11-06T03:33:16.644Z" agent="Mozilla/5.0 (Windows NT 10.0; Win64; x64) AppleWebKit/537.36 (KHTML, like Gecko) Chrome/119.0.0.0 Safari/537.36" etag="dq-HEZ5N-hRWrCQNVSbU" version="22.0.8" type="github">
  <diagram name="第 1 页" id="hTWE9XlZe_84ij78cr1M">
    <mxGraphModel dx="2049" dy="1129" grid="1" gridSize="10" guides="1" tooltips="1" connect="1" arrows="1" fold="1" page="1" pageScale="1" pageWidth="1654" pageHeight="1169" math="0" shadow="0">
      <root>
        <mxCell id="0" />
        <mxCell id="1" parent="0" />
        <mxCell id="Cru0Noi3GC09ZyKnsuBZ-1" value="" style="shape=image;verticalLabelPosition=bottom;labelBackgroundColor=default;verticalAlign=top;aspect=fixed;imageAspect=0;image=data:image/png,iVBORw0KGgoAAAANSUhEUgAABYcAAALyCAIAAAAOovxEAAAABGdBTUEAALGPC/xhBQAAAAlwSFlzAAAOxAAADsQBlSsOGwAAw4JJREFUeF7s/d+PHdd953v7P/BlrnShGwO60MEBNAgm8yAIkCAXDmDA8IkNjOEEh4DdDObYPBjEwMBxYD22lKE7iUOIRqLhxIb9WLIdmxyTksUca2Y8Y52RLNGk2KRIhxIlipTY7Ca7m2x2uyn+ECk+a63vt6pWrVpVq/avrt7V7xe+kHbVXvVjb5Jr1/r02tUfug8AAAAAANAFUgkAAAAAANANUgkAAAAAANANUgkAAAAAANANUgkAAAAAANANUgkAAAAAANANUgkAAAAAANANUgkAAAAAANANUgkAAAAAANANUgkAAAAAANANUgkAAAAAADCye/r/gZBKAAAAAADQfy+99NKXvvSllZUVXW7n3X/+4he/cfjcLV2sc+fc4b/74hcPX9DF9kglAAAAAADov7/927+dmZkZOJi4ce7w12eagwkXScx8/blzN3TFAEglAAAAAADov+9+97szzniDiVEiCWNMqcTbz3/z7/d88++fPnJdV6jrx79n13/7+bcj5379zZdfePHlF05cvKkr2rv4+pk1fQgAAAAAAOqtrKx86UtfkkhCjCuYGDGSMEZKJS6/+A+f+b3PPXvp/v1jX//wb33kw7/1uR+bx+/u/+zv/ek3X1w2DW7+4qtu/cN/c0y2KDnyDfPURz782f2X7dLx//ypj3+sub7yvGu5duQbH/3wb/2rz3zruM1Arjz/5aBZTX35eXtKAAAAAAD02MrKyhtvvKEL9+//9Kc/1Sii7Etf+pK2aKkSTIweSRijpBJrz/+Hhz/8Wx/5yOf3X3glSyXevfjjz7uVX/3FTZs72Mcf/q2vvhCb5hGkEn9jWzaWtLz68mOfkN1+5CN/8g8nz+z/jN+mvj7zE1IJAAAAAEDPyTc1fvrTn66srMi9JAJfyugG7XnBxFgiCWO0b3Bcff6LD/+rz/z9y9fzVOLNt378lY9/5I++fmTDPP3rb/6BSwT+4HOP2e9xZPX8Rdk6mkp85qlfX7++FtTrT/2p1/L+/fcv/vj//ldmzUc+//Trb2oq8fnvuO+D2Hr6y/8fu+Z3v7o/W2Pr5KVYNAIAAAAAQI+89NJLGj/UeOONNwb7+oZPgon/79cfHUckYYyQSpz49sc+9fHf/r2P2u9H/JHNCD78Ww//9ic+/rFPffS3f+/jH/vW8fun/uF3XV4Q1jeOX/7J54KVn/nJfk0lYjMatH2eSlgXn//Gt232cUlTieJLInrcT33vbV0BAAAAAMD2UfetDcM8pY2GdeNf9j9qdvSV/WdGzyRGSiX0XhI19Y1fvPBX8j2Lf/WHcmeH33OLD/+bj32rKZX4yO8Vd4IoSrbNU4mrFy+/L49KqUR1t0V947i2BwAAAACg76LBxN/+7d/q08PSL24c/K+HYje/HMIIqcT7t+zXK678+sd//m+ywf+ffu/ExQtX3Ncu3t3/eVn558/K7+W48NTH7aJLFq4fe/qbf7/ni//WNXDf7/jesefb3ldi4/jf/NFHPvxHf/Hsu26/pBIAAAAAAFRUg4nhv7jhlO4l0fjrQtsb6b4Sl1/89ufdjSc/8rBMi/j9P/yjhz/8r//0my9ePPmfPqpxwKeevuAa610kvHQgcV+Jn8vv7/jT753JbzBhX+uFH//pR1zLDz/88cd+sRxJJUpf9IgcFwAAAACAfvvud7+7srLiBxP+L+YYQuT2luMIJoZOJW4d+YbcS8L9Ioyfy7c5fv9jn9CVXskv4Lj44x128TM/1ltdGuVU4uXwvhL+bxstu/Djz7lg4uHP/uRiJJV4+N/43/74w3/tjkIqAQAAAADYHuTXcMj3NfJgYpQ7StT+xo2Rg4kR5krYm0o+/LHZX1y+8usXvvP5PEG4/OI/fOZff/SLf/G5D//Wwx952GYHf3Pi/v3rz3/RZQePvaJb379/64W/cnnBw//mD3/v4fy+EonKwoULz//FZ75x/KZ5xDc4AAAAAADIyO/g+NKXvpRPjpBgwl8zkMQvAR0tmBjlGxzLr59Zc+GC+/rGH3z9SOkM3vret5599qs2Efjd//Trm7+Qr2P8+fPuJhMnv/XR/y3PC1wNmkoU+AYHAAAAAADOG2+8MRO7q6UEE0OkEolIQowQTAyfSjRNTHAZgXH9+T+3i3/wF1/+v936LC84+YTch8LVw//ms199+oVXns7DBVX/DQ7j5FN//p9//tb19+/ff/vpj2Ub8g0OAAAAAMB2Fo0kRrHw/z755PONkYS4ce6/7nvyxdj4vdmEUgn3rQ3j6rP6mzhc5feMuHz4zz//1W9/+bNuvUQV9vsgZvFz33vl+AsvvmxLvxXy8ceedYsvvnzyUp666F0qPvzVX9z0wgu+wQEAAAAA2LZ+6ujClBjlGxz37199/ovuzhFf/oXkBbde+KqbBPFH/3DSLRff7zD18J8/f1XXCv9ul5eflUDhq997qjZZKG6Emd2lwqzJkojPPXvFHG3t8pVl+9s6zujMi8d+vnb9+vKFty9e39BNAQAAAADAFjFKKpFlEL/18G//2dd/fOzi6/qrMT76N8fySQ23jsz+vmvzkQ/v0F8RmvNSCbMrabP/SOxbGL9ts4/Sr+dwB/r9b566f2TWbfhbXz9i1r/99Ccf/viXf/Lr6+/qzSYe++Hzf/PZf2XveUEqAQAAAADAFjPSXImbl47/+Bufk8ggr09+5y19+v7yC3/1Uf+pj3z+6de9dKBIJW69/Jjbye/+p1/r3IfsDhTO8o/ddz3yVOLCUx+3bWwS8etv/oHbyeefvWwe/5F9/JH/8Pz1/BaYr7z1vX/rVn71F/YXdgAAAAAAgC1jtFTi+vLrx5795uez2RBZ/W//9uvPn3r5b/4k/+7Gxz/m8gJbf/QXP35TZ1Lobwb97P7Xf/HVfO6DphKf+vqzcncJW88+9inbMkslNKT48H94/rrejeIjH3vq+JFvuAREvieSzZWw98489Q9/aB///mOvDH4zUAAAAAAAMDHDpxIXnvqUTQGy+sgn/uI///Drn3G/8OJ3/+ijLmVw9fDH7Rc63t3/WZ1S8anvvZ39bg6p2Wef/XOXX/yBvRtFwx0rNZXI7qD5sadefv4/SPDx+998dv9n7P4/+thf/cUf5r93Q3+jh/umycMf//Lhi3ZzAAAAAACwNYwwV0LTgYd/+0/cL+mUle8vH/nh/iMbt3Tmwr/+/PeymRH3393/+X/9kT/8T7+2j7Nf52k2/+yzy/c3jv/NHz38xefXzDOaSvzB5x77+z3f1PrqZ93XNCSVuHni25/8vYfl13zcfPNps88P/1t3x4p3n/+bbx2/mc2SsPXwV1+Qg1+9eEHPDwAAAAAAbBUj3e3y8pm3LtfeRfLiCz95+fL7uqCuL1/XjGL5dfl2xqnsBpZXlyU3uH7saZtE/PC4FyOsHfmhjSe+d8zGFuLmpbcuy67e/cXzp/yvZlx83mUZ3zt8nCQCAAAAAICtbKT7SgAAAAAAAAyNVAIAAAAAAHSDVAIAAAAAAHSDVAIAAAAAAHSDVAIAAAAAAHSDVAIAAAAAAHSDVAIAAAAAAHSDVAIAAAAAAHSDVAIAAAAAAHSDVAIAAAAAAHSDVAIAAAAAAHSDVAIAAAAAAHSDVAIAAAAAAHSDVAIAAAAAAHSDVAIAAAAAAHSDVAIAAAAAAHSDVAIAAAAAAHSDVAIAAAAAAHSDVAIAAAAAAHSDVAKYSpcWlvURAAAAAEwtUglgKpFKAAAAAOgBUglgKpFKAAAAAOgBUglgKpFKAAAAAOgBUglgKpFKAAAAAOgBUglgKpFKAAAAAOgBUglgKpFKAAAAAOgBUglgKpFKAAAAAOgBUglgKpFKAAAAAOgBUglgKpFKAAAAAOgBUglgKpFKAAAAAOgBUglgKpFKAAAAAOgBUglgKpFKAAAAAD127Oz9v/zu/U/91f1PPr7Vy5ykOVVzwsMhlQCmEqkEAAAA0FdmhB+M/KeihgsmSCWAqUQqAQAAAPTVX343HPBPRZnTHgKpBDCVSCUAAACAvpqKL25Uy5z2EEglgKlEKgEAAAD0VTDan6IaAqkEMJVIJQAAAIC+Cob6U1RDIJUAphKpBAAAANBXwVB/imoIpBLAVCKVAAAAAPoqGOpPUQ2BVAKYSqQSAAAAQF8FQ/0pqiGQSgBTiVQCALa5Y7sfemD3nC60M8QmLSwf3LHz4KIulJmnHprZX/OBdXT2gQdnj+kCAKAkGOpPUQ2BVKK11GfnZD7pMa3OX5g/cuzUj37ys+d+9oIp83jjxnv63DiMP5U4Olt74QgA2CqKCMC78Ggc/BeWj+3e+cCDdQmCY692HmpbOw4s2W3s0UvXSIsHZvQobVMJ+1qCnXvFxxOAbSgY6k9RDWGCqcTSfvPJl39iDc99UDV+gg5PPkfrqnxQUgm09j//31/96Cc/k3ruZy/kD06feUtbjGzsqYT7B5v9nU9dle496poZ9tIzfLam+IEYAIxobq/rUWWU7qcSS0e1Ny765zi7h6ZBvu3/h7jochdU2VWQ/UDxAos2qYThPoYqnxTu8yj1ogCgh4Khfvv63oX791fuf/KE7id08/73Kpv8fOX+xoVw5dA1hMmlEvmAf8DPtsrH4SRTCU+R63v8lcVnp14TtC4GY9uLRBLP/eyF8xfmZc3GjfdOn3lLVl5ZviorRzSJb3AkkzX3j7HcJvIPJ3YNWr70BAAMzI3P/b602mnrD4RstzzotYopt+fiMszsId5vm6NEggb7cSDtE4cuIobwo6EUbVgu+G7KUACgv4Khfvs6dfP+/AmXSlQDiOjKx++bQYvdpLJ+uBrCxFIJ+SDZPTvox8kmZRAVXq7viacScckRHbaD8xfmJX3QZU/DU0OYyH0l3D9b70dS3o/U3FORfwL+vxFFKgEA45X9pKd8mVFz4VEZ2/sinXZZnkoszu21B600tg2aZsKWpzzEPhGK9KSo7KPHJRqyczkQV1YAtqtgqN+2/tv9jfv3f24eNKcSrllLdm+D1BAmlUrI583eo5KXDzAa6SiV8EZfPlIJDEgmStRNiGh+diATutvlsd079x7N9ry4vFT8yKvmXyWpBABMnO1XG7/F0Ppyq30q4birMu/QdvPmq53gVOOphIp/NNhN3OdO/YYAsA0EQ/2WVXwXo/VciVM3x/n1DVNDmFAqUXw6hp9nhXy0Y8p9/kko7pV8GsVyCn/b8NMxa198qtUOqHKVQ+vHZF0qEWlfW42XEeib59xdJHShQr7HMZa7S0wolciU/4lVqrhSJJUAgG741znSwS4vNV/tGAOmEoZcyLle3X00hJFE8XkRu+AZKJXwX1FWI9+eDACmVDDUb1nFdzFO6H5CQSoRDS9GqyFMJpVwg3b9EIrG6jKqL1YuH9ytnzrVDCJc4+/cko/D4lNNPj5NZZ+O8iHX8BkcfmQW3+aoSyVi7HGbfnqAbaH5OxryJY78fhOjGG8qUUym1es/+8+quL4s/eUv/3uRf+CtqumfDwAgJRi0N1zYqOoXJeqq6NVthx/uufIZUaWfGu2OmH0cFB8u2Uur7t9d9dniEgvANhMM9duUvc+ln0pkcYPeaaK8UkpTjLoI4/79U/+taNyyhjCRVKKcI8gnjT8gcTlCzQdbIpWIZhzllZJK+CmDfKSV1njcJ6h/eu6EZW+kEhiQfEej7peAyu8K3YKphLD/FoZJJYLr13IDkfrnAwCo0z5csOVdX3m9eibZadvuOmhgyE+Aai+lwk8Nw+v2I6chpI05pfDZ2OcIAGwzwVA/Xe5WEfMrkftWFqlEZb0RvW2EPBXdKllDmEQqEYYO8mla/sArf3R5mlMJ2VVlW5cjZB9+1T3EswxV+Rz1P7D9x9nn62AXB674ZN0+5DsaR46d0mXPxo33zFMNmcVANiGVCP4a+1X8lU5e4Arv8hQAMJT0WD0Y/weLVrLTtt110EA+EWb3Vn/qUxg8lZBrM1PVp0glAGCIVOKEDRF+7lIJ899mp/6ba3MzuzVmeT/GcHmE1BDGn0rIoL30WSIfPNmnTiQ18DSnEnXbuvXDpBK2sVmffTTO7J+zAUf+Ael/eDcNq+yHsfuFI4y7tjuJHp772QvBzSPMeplGMZabShjMlQCAbcb2rnYY31zeIH8MqYReIPmXWJUe3gpTCdsyO3TpNNzHwdPyrP/RYB97ryIsPkEAbDvBUL9lSSrhr5m/aWvjZvm7GPJVDvmFHfVf3xCDfoljCGNPJRo+MvVDLpIaeKrP+mvqtnXr/Y/Mchv5TK2mEma9/2mtn4jetv6Ht//ZWeJ+huB2bg5d+qi2m0TOFv0mN4/IswkpWSMrtd1oSCUAYJuJ9a5lQQwxaiphH5dijvwyr3Ia1U+Noo1/GtWEIvbRkH6lANB7wVC/ZQWphCzKNzjmq3e1zH+NqF+Ve08MWkMYdypRN/73Pp/sB1Iwzc9TzRT8NTXbus/I7ENugFQi4JqVPgX9D+/4Z6eLJIoPbLPo2ssR7eMWN8RG7+QzI/w6feYtWTmWYGKrfINDrllbFakEAIxCE4FEFdck5QhA+Bc2Kp5KuKupIJIQ0WAiTyWyk/QuuvzTsLvNnyKVAIB6wVC/ZfmphHksv/JT7ytx4v79FX1Kq6+pRH3i4I3eGzMCt4fS52UpZYhu61bmn15DphLSpuHDu/LZKS82+OjNB2l1sQu2j40b752/MH/6zFv57S3ztGL0YGKLzJVw/wqCa8rY1WTtpScAoKX0WN3rxq1g0fIvbJTt8Ivd2u7aNJg7uGNn/bHMJrMHF71n3UWU/dRwV0GVSyB3EajlHT3/aHBbJSp4IQDQd8FQv2XlqYS9XWWWQWgqYR67L2sUMURPUwn51ImPPSR0lw8qHc8Xg/niN4PKJ5P/QRikDLKt18Ad1PusGiaVkI/D5g+8/LPTkB26o9jDBXt2eyOVQFQeTJj/6qqhbJFUwv79D//hkEoAwCSMNZXQKxkpr3+23XX5Iiop31XzdVRV7UdD+pUCQO8FQ/2WlX9lQ2ZJSBWphCk/iSinEvmvCfS3HaKGMNZUwo3Gawf/wbOlj8PS55/kF6bkA6k2Zcgq+NwaNJXQwzVkFiL77JRYJB+w2c11W/shmn2+SkAz4Oc6toeNG+8dOXZqy6US8i+04S+tNsj/kuu/rMqFI6kEAEyCXGakqjkasP1248VJ0dW3qZ0HX8svsfyroHZqPxpIJQAgHOpPUQ1h7He7nDb2E7Hh47l0BRD9gMwzlNh+ss2TkQcwoDGnEu4ydO/RMHRr5v7yVy8oY1eTpBIAMKr0WD0yOSKQTCUG5k13NVqFGjsPPp81i18gkUoAQDjUn6IawrZPJUZl50TwwYnNN95U4ljp18fITJ9U7f6FuWqM5RfF1aSX2fHPBAAAAGgrGOpPUQ2BVAKYSpO4rwQAAACArSAY6k9RDYFUAphKpBIAAABAXwVD/SmqIZBKAFOJVAIAAADoq2CoP0U1BFIJYCqRSgAAAAB9FQz1p6iGQCoBTCVSCQAAAKCvPvVX4Wh/Ksqc9hBIJYCpRCoBAAAA9NVffjcc8E9FmdMeAqkEMJVIJQAAAIC+OnY2HPBPRZnTHgKpBDCVSCUAAACAHjMj/L/87nR8lcOcpDnV4SIJg1QCmEqkEgAAAAB6gFQCmEqkEgAAAAB6gFQCmEqkEgAAAAB6gFQCmEqkEgAAAAB6gFQCmEqkEgAAAAB6gFQCmEqkEgAAAAB6gFQCmEqkEgAAAAB6gFQCmEqkEgAAAAB6gFQCmEqkEgAAAAB6gFQCmEqkEgAAAAB6gFQCmEqkEgAAAAB6gFQCmEqkEgAAAAB6gFQCmEqkEgAAAAB6YNRU4tjZ+3/53fuf+qv7n3ycoqh0mX8s5p+M+YczoksLyxRFURRFURRFUdNeI6USZmT1f/7t/VfO3L/3ga4B0Mz8YzH/ZMw/nBGDCfOvVx8BAAAAwNQaKZX4y+/a8RWAQZl/OOafzyhIJQAAAAD0wEipxKf+ilkSwDDMPxzzz2cUpBIAAAAAemCkVOKTj+sDAIMa8Z8PqQQAAACAHiCVALpBKgEAAAAApBJAN0glAAAAAIBUAugGqQQAAAAAkEoA3SCVAAAAAABSialyW/+PHiCVAAAAAABSielx9v7nHr//w7O6VOfK8/c/+X19jK2MVAIAAAAASCWmx3H7hn/ruC41+Nbj93+2oI9LFu5/+fFEZlG7LcaNVAIAAAAASCWmRyqV+NbjtkGpvnn/iiQR+aI0dbvK62cLsW0fv//l56U1JsK8w6MglQAAAADQA6QS0yM5V2Lh/pfz3CGf9VBeGTj1/XDqRD5XwjxFKjFRpBIAAAAAQCoxPdp8g8O0cRnEt/KW9amEvQOFe8pmE5WJEnnxhY4JMe/tKEglAAAAAPQAqcT0aEwlbMRQCRRMfet57xscWf1soYgkAsyV2DTmD2IUpBIAAAAAeoBUYotaff3+8V+V6xn7hn/1mcr613WTXJ4sWN5cCX+9eSwJhSmz0l/Mi1Riosw7PApSCQAAAAA9QCqxRX3rPxbpQKL+4/1TupFqk0rkgpXRNpgE82c3ClIJAAAAAD1AKrFV3by/cb1cL9k3/ImXKutvuvYLkW9q2O9oZHeaMIrEwTW2WYY8iG5rKvYVD4yLeYdHQSoBAAAAoAdIJaZHm7tdOqX5Dmar7Lds+Ot/9k27K3t3iZrfwYFJI5UAAAAAAFKJ6ZFKJeSGl6dcsvCt7Fd+mpX57SHCtOKb97/lsomG38HBrSUmx7y9oyCVAAAAANADpBLTozGVyCMJQ9IHySP8JCKYB2HDiMp3NII2mBxSiS3i6rW1k6fOvvjLOYqiKGpcZfpV07tqP1tGr0tRFDX2auh1pwKpxPQY/BscwRc0SomD25sUEyI6MeI/H1KJsTDd9yu/em15ZVWXAQDjYPpV07tWL5HpdQFgEup63WlBKjE9WqQS35Kgwbu9pf/rOYpUwu0qf0q3qimmTkyIeW9HQSoxFidPneXiGAAmwfSupo/VhQy9LgBMSLTXnRakEtNj4f5//Lv7Pycj6AtSia3gxV/O6SMAwLhV+1h6XQCYnOntY0klgG6QSmwFXB8DwOSQSgDAZiKVADAYUomtgOtjAJgcUgkA2EykEgAGQyqxFXB9DACTQyoBAJuJVALAYEgltgKujwFgckglAGAzkUoAGAypxFbA9TEATA6pBABsJlIJAIMhldgKuD4GgMkhlQCAzbRNU4lP/dX9ex/oYwDtmX845p/PKEglxoLrYwCYHFKJ8Vk59IVdh67oAgBEbdNU4i+/e/+VM/oYQHvmH4755zOKkVOJhcNfmXn0uQVdun//+L7SYtnxJ2cePbyYPWzwlcN1u9ia2vTdK8/seuQLh1Z06f79uT2lxbKTTzyy6xl58uSeRxpwcQmg/8acSpjuN/fESV1Zp66vtjvZE9n4yqFdlfVelx507wP24ZWd208W/yXUnVWm+CTy3wTPHtIeANs2lTh29v7/+bd2fMWMCaAl84/F/JMx/3DMP59RjJ5KLCzaJCLLEerChlIY8eRx98CLHhqzjCnQKpW4suKuAvUa1FyYRpXCCHutWb5srbs+BoAt6M5dfdDg3t279/RhneFSCTsCj4omEZVRuo7P471uKS8ujeQjqYTfjdsNi/buoHlgYU750Bdkl6KSWbRJJRo+I+zhmjILANPu7h190KRFz7xNUwnDjKz+8rt2LvonH6coKl3mH4v5JzNiJGGM9xscXrhg51DY9MGwSYQ+tCSP0FTCpRQhr/GUGLjv9i4cvWvK8tWqXsjq5Ww0xeCHWgC2rjunf/qP+37w0mVdjLp3+cUf7tv3k5M3dDluuFSiynSkA3ebkXG+zQ4kSvA68CBQcNxTxfQEo5pZlNbYnWRn6GcZmVFSCSIJoO/u/vqn+/7xBy8G/Ubgyos/+Md9/+VEc6e7jVMJAJ0YVyph84h9Tz66T/OEhecetfGCzR2Kr3iYlcWEiCKVyKZRiMXDj/Y7lbCXjHv2fCG7NLSXmIa99CyuXM3K4rKySCW8n6cZ/sUrAGxFl1/6wb593/npmdrL37f/23fsNfSlxA/uOkklbJ9cZTpnO7wP7ZnL+uQsOMjzgrqZcRVmq0oq8UzkWM6uQ/+j9NSuZw7FmuYxhNmbPjYnVv40AdAXkvM2dLr33v6v39m374cvXkpNqSCVALCpxpBKuOkOjz63sLDoEgcbK+h8B8km8oxhYfGwbSrJxXacK2EuCt0V7ZUVdz2oP1jLrmK9ScVXVg7Zq1i5gixSiSpSCQBb240zh7+z7x8PRedC3Djz0+80Zha5IVOJWHwQqptZkPNmH+TZsSYOGkBIlFCbSnhsm8ZEoJJKjDJXwn+cq+wBQK+4jnXfwZpO13TIrTpdUgkAm2vEVMLmDjZccCRhyBcz9q4Thk6jyL7ZUaQS22OuhL0QzK8vXTxRvdzUC2i9XsyuNYtUgrkSAKaP/Ozuhy9eDm4e4WYRf+dnb97W5SZDphIV9XMlpFsOuF46SCVcBDBkKlH6IIiKpBKlzr+SKQyYStiXmZ1knV3aFsCUcr1r9dtzMnnt/znbptMllQCwucbyDQ79vkad7GsdJdtxrkTzhaAR/flVcWFaZS4u7SVpW1xrAuiCTIo47P18Tn6aV40qakw+lVCV/Lc07M8fVzveNqlEQ3ednZXdicdFGH4SEU0lnD3P2KcO+QcNUwnZed0HTeKdATBFqjPRpNNN3OjHQyoBYFONK5Wo+w0aNrDwU4lsKkTd+ik1QCpRnU8rwmvN8AI34/8kDQCmhP+zu+Q3nys2K5Uwg3PT39puNs8m/JyilEqYB9o/S7csY/6yUiphR/67ntizqxxVuJ3kEyj8Hl4jaaMIOPxPBJ1elx3lyore8CLffymVcKf3hV3lD5QcqQTQN3ZmRH7nS5mb5kfDKaQSADbVBFKJ0pcygvQhXyx+W4dpbtZIKmH+W/kCyFQYLpUo/VAuSB/yxeKysrhcdpe/+VUsAEyB1aM/clHEsrvTROou8WXDpBL5oD0t607n9kifbFOAouMthuum05Yxfz5DIVedKxFwm9j15oE3HcNFFcViPJXI+v/IzovAwnLRgyEn76cS5rFpVnNuwcsE0Aurv9rvOt2VweamCVIJAJtq/KlEedZDkEpkYUT+e0OzCCPbyvvdotNkqFTCv/qsXGtmV5P5FWcWYWRb+ZebADAF3I3WrEGmSTjDpBIxjXMlTO+apQC2Q3aPbbRR9Mx5lKw9s/bbsc486KLtyqJNth+bBXiZguHvyk8lMsEnhfcZYWVnW3t6lc0zpBJAH8nXNobpdEklAGyusacSNoawdLpEOZXIMgh7N4lyBlFkGQuHv1K+/+U0GCaVcBephv6UrHyx6F+z2ivF4gK3uL401526LQBMhXuXXz7wnf/yStsvNuc2I5Uw3WwWAYtdz5w0/a3fzeaphD6oDvuNyEr7uJw+uOCgNEtC+FsNmkrYbUs71MbefiqbZ0glgJ668vJ/+f/9l5eDnqQFUgkAm2osqYRjpz84Ei7Y4MHxIgaNHlxL+dZGHlj4Myz89VNioL5bLkYNuQT0roDzq0m9MHUt5eo2v470r1n99QDQW2NKJfz+M2CfEtJAO+rSlDTbxnXU2Ti/NpXIuM1tJ1/Jo90amwWYvt+LHorTcNqnEm7D0tka7jzngjQ8+qlBKgGghFQCwKYaNZWwaYKq+eaFpBU2m9B5E34AYWVxxrQlEb4Wfbd3rRleOCq5CK79+VvWwOUUALCNjJZKyOBftO4/TT+c9dVZ32u4zbPbTxhZrLznZClu0CftUP/HMtMt+wiI9P/5p0PQ7btMQVIJ+9WMTD7nIjuiORl7hrFPluJjRQSpRH7OFp8sAApTnErcunGfoqhua21w45srsa1Nb98NAFvfaKkEAGAwpBIURQ1fmjQMglRiLLg+BoDJIZUAgM1EKkFR1PClScMgSCXGgutjAJgcUgkA2EykEhRFDV+aNAyCVGIsuD4GgMkhlQCAzUQqQVHU8KVJwyBIJcaC62MAmBxSCQDYTKQSFEUNX5o0DIJUYiy4PgaAySGVAIDNRCpBUdTwpUnDIEglxoLrYwCYHFIJANhMpBIURQ1fmjRUPPXUU/qoglRiLLg+BoDJIZUAgM1EKkFR1PClSUPZUxldLiOVGIuTp84ur6zqAgBgfEzvavpYXcjQ6wLAhER73WlBKkFR3ZcmDR4NJDK61kMqMRZXr6298qvXuEQGgPEy/arpXU0fq8sZel0AmIS6XndakEpQVPelSUNGo4gyfS5DKjEupvs+eersi7+coyiKosZVpl+tuzim16Uoihp7NfS6U4FUgqK6L00aBkEqAQAAAKAHSCUoqvvSpGEQpBIAAAAAeoBUgqK6L00aBkEqAQAAAKAHSCUoqvvSpGEQpBIAAAAAeoBUgqK6L00aBkEqAQAAAKAHpi2V+F+zDzw4+3KwsrmG2KRFzX9/52e/vxyslDJPPfCnB+Yr613N/d2DD/3d/wpWUtu9NGkYBKkEAAAAgB4YTyqxsryxuLB64Z0lU+ZB8JSsN7V+/Y7/VPsqIgAvYmgc/Bc1/79mP/vgQ3UJgiubFDzQtnb++G27lT16KV9Y/vGf6lHaphL2tQQ796rFS6N6UxI0vNCONCaVAAAAANADY0gl1q/fOfLq6bzOvjXvP3vhnSX/2SGCiZe/5o3S/VTi7bkf/6l76mtzfvtq2T00DfJtUtAYW8TLBRPZLIy3D3zWDyzapBKm7FbVqRMuJUm9KKpPJUGDpg4p0phUAgAAAEAPjCGVkNzh12fOLy6smlpZ3vCfXb9+R6ZRzL32hmlmHvjPpkpnMRTj9urXMdzA3rT57PeXNb8YpNyei1TC7KGSEbgyR4kEDXZ+hLRPHLqIGMqpRBBt2LL7ZKLEdisJGjR1SJHGpBIAAAAAemAMqcTZt+aPvHo6CCOqZRqYZsFMioaSr0iEGUTNTSIqY3u/iu9W1FSeSiy//DV70EpjCUd0KkSkylMe4nMlsvSkqCyqcImG7FwOVPdCqN6WBA2aOqRIY1IJAAAAAD2wtVOJxm8xyPSE+NSGUrVPJdyi3O6hOLSbvNCYFASnGk8ltMK5ElIuVXFRBbMktmVJ0KCpQ4o0JpUAAAAA0ANbN5WIVjF6z8b28283xA1SA6YSpiSYcAGByz7CSKL4vkYsNxkolfBfUVb1kzKonpYEDZo6pEhjUgkAAAAAPTBqKiFZw9xrb8jixvr78uDmxj1TwUq5tcRAN7wMBu2N4YKr6hcl6qoIDiqphKliP7UZgc0mvjbX8ohZElGkEtlLq+7ftnFPzZbXU70tCRo0dUiRxqQSAAAAAHpgpFTiSPZLN2SixOXL18xIaf36rZsb98wDU+aBWTQPlpaumwaLC6u/PnNetsp3Eq/24YItb2BvNwzG+ZG5EuXpDLFUIp8QUf+VCk0lijXePIjIaUhJG3NK4bONMyyonpcEDZo6pEhjUgkAAAAAPTCGVEJ++4ZZTKYSK8sbbVOJrNJj9WD8P6ZUQiKJv/ta8VUO/1mpwVMJuUVFOUbJilRiO5cEDZo6pEhjUgkAAAAAPTCGb3D438to+AaHaWCamcYysaJl2bG6TohoqPGmEpodaL7g3WMia6AVphK2ZXbo0mm4tOLb8qyXXLj13qsIK2tG9b8kaNDUIUUak0oAAAAA6IGtfrfLTZ8rIUlBaQ+ajFROo5xKuA3zNv5pVBOKWNyQfqVUf0uCBk0dUqQxqQQAAACAHpiGVCKbO1BfY0olZFpEuLmtaDCRpxLZSXq/qsM/Dbvb/ClSCSpSEjRo6pAijUklAAAAAPTANp0rYQOFSirx8vd3frb+WGaTv/v+sves+6KHTSXcLInSDSZs2UPYqMKWd/Q8lXBbJWpnvjeq3yVBg6YOKdKYVAIAAABAD4wtlTD/XVxYNRXEE2ZR1st9Li+8s+Q/m6yxphIuR8jG/N6EBU0lvE2Sle8qOFay8lQiLOZKbOeSoEFThxRpTCoBAAAAoAfGkEqsZDe8lApmQ1x4Zyl/ypTcFLN9ZV+OaK7maCAyV6JcbaYtFPXZ77/hIgn7pQw5vWjKUFOkElSkJGjQ1CFFGl9yv+aGoiiKoiiKoihqqmsMqYSpleWNC+8sSVXnSsj66jSKNjXwXIlIJVOJgWv++7PeEVuFGp/9/v/Mmnm3n/CKVGI7lwQNmjqkSGPzr1ejRQAAAACYWuNJJSiKGqUkaNDUIUUak0oAAAAA6AFSCYrqviRo0NQhRRqTSgAAAADoAVIJiuq+JGjQ1CFFGpNKAAAAAOgBUgmK6r4kaNDUIUUak0oAAAAA6AFSCYrqviRo0NQhRRqTSgAAAADoAVIJiuq+JGjQ1CFFGpNKAAAAAOgBUgmK6r4kaNDUIUUak0oAAAAA6AFSCYrqviRo0NQhRRqTSgAAAADoAVIJiuq+JGjQ1CFFGpNKAAAAAOgBUgmK6r4kaNDUIUUak0oAAAAA6AFSCYrqviRo0NQhRRqTSgAAAADoAVIJiuq+JGjQ1CFFGpNKAAAAAOgBUgmK6r4kaNDUIUUak0oAAAAA6AFSCYrqviRo0NQhRRqTSgAAAADoAVIJiuq+JGjQ1CFFGpNKAAAAAOgBUgmK6r4kaNDUIUUak0oAAAAA6AFSCYrqviRo0NQhRRqTSgAAAADogQ/p/wF0R4IGTR1SpDGpBAAAAIAeIJUAuidBg6YOKdKYVAIAAABAD5BKAN2ToEFThxRpTCqBlq5eWzt56uyLv5yjKIranmX6QNMTap9YZtafeG0L9ZCnfv1msIaiKGpC9drpN0//y7mFhSXtEDtFKgF0T4IGTR1SpDGpBNowF9yv/Oq15ZVVXQaA7cf0gaYnrAYTK1evm+vyi5eW1n9zc4uUOR89OQCYvIvzV06dfnNhsftgglQC6J4EDZo6pEhjUgm0cfLUWSIJADA9oekPdSFz4rWz785voUjCFKkEgE126dKV0/9yThe6QyoBdE+CBk0dUqQxqQTa4AIXAES1PzRrglCg86LTBrD5qqHt5iOVALonQYOmDinSmFQCbXCBCwCCVAIAorZCz0MqAXRPggZNHVKkMakE2uACFwAEqQQARJFKALAkaNDUIUUak0qgDS5wAUCQSgBAFKkEAEuCBk0dUqQxqQTa4AIXAASpBABEkUoAsCRo0NQhRRqTSqANLnABQJBKAEAUqQQAS4IGTR1SpDGpBNrgAhcABKkEAESRSgCwJGjQ1CFFGpNKoA0ucAFAkEoAQBSpBABLggZNHVKkManEGC089+jMzKOHF3WxT7jABQDRaSpx6X8+vW/f0y9cCNeHRacNYPORSgCwJGjQ1CFFGm+XVOLy9+//74/r4yYLh78yM3SyQCohTj7xiGfXoSu6/v6VQ7t0ZeaJk/fvrxz6gi6V7dKtAGAM7t69o48a3L1zVx/VGzWVuPDC0/u+/z8vVNa3qgmlEif3PPLIHnIMAKMhlQBgSdCgqUOKNN5GqcT/9X193OD4kzMzjz76lZlHn1vQNY1cDPHkcV2aBJeS7JvkEdpp+zEjuYPNGnLmYjcLJtyzDRe+Ns74wqEVXQKAsbn8v57a952fnrmhi1E3zvz0O/u+8/N3dbHOiKnE3LOtYoURa6Cxwcoztm/2O24AGAKpBABLggZNHVKkcf9TieOP3//fP3R/z+P3/y9TH2qeMXF8n40AbNbwlcNtYglSiTL707Zdz9SnCqQSALriIod9P3zx8j1dEVr91Y/+cd93Dp9er2uQGS2VeO3Qvn2HTgQrx1+DjA3shLWmrhsA2ulPKrG2vrG8sjq/sGTKPNC1jnlK1pu6dbvFJLyYpf07H3jwoQd2HFjSFUM6tvuhBx7ceXCc87Tn9poTy2vkM8T2JEGDpg4p0ni7zJWw2cQn7l/WpRp2poTNGBYPx8IG+XKHY2MCb9Fyzd1UC+8bHHY55+/Qxh9fObxQPB/73oc7jYI5aLj/4pQrOwzP3wUoqvLS0tp8zNiftjVnCqQSADp05cUf/OO+p35xSRd99y6/+MPGzMIzSipx4Rff37fvmbnSonr6F5e0mf2Kx75DJ9yXNYQ3t6LlVIsBxgZzNk8uvmpnFzPFxDf3VbsnTsoX9LIIwybRqtR1e+uZggFsJz1JJW7dvnPk1dN5nbswr0848wtL/rNDBRPLB3fIsH/AQOHobLDJuFMJe2Iz+/PBoSQU4009sC1I0KCpQ4o03haphNxUInVrCW/iQ2WGggQE+ZrjhyUaCOdK+KmB26T4Jkh50YYIxQ7d4eKzM4IzcQcovl1SPFveoWYQ+ZlpZqELNrkYNJho8TGj16y6FEUqAaBT8h2Nyhc5bpw5/J19//iDl9v9RGiEVMIGDX76cCh/fOKZffkcCpdK7CvuPWGnV+RJxNhTCdvxFl33yT35Y9djZwGE3gCo6MBL/bl7Nuu9Tz6RJxGl9QB6ryephOQOZ86eX15ZNbW2vqFPOLdu35FpFCdOvWGamQf6RHuLB2YefGhm96z9bxEBpE1gZkRgeSnYuTvVB3Z3/+eK6SJBg6YOKdJ4W6QSez50/5D7N2Ye1I7GS+P/IG4ojeo9DalEdRO/cfisH2eUhPlIaUObdHiHK0UN3oZeMyfcZxstUwl/DrD7orLSK1d3FesLEgpSCQCTdvmlH+z7xx+8mE8NkDXJe054hk8lbPRQd59LL7BwqUQRXpjyNhxzKtEYFnuBRZgvlLOMyoSLnF3PdAlgu+hJKnHuwvyRV08HYUSVaWCaBTMp2pCvb+w9KjMRZo/p6rTJpxJV7iRJJTAgCRo0dUiRxtvlGxxJbi5DMawvTW2ww/jo/S/rU4nYJg2ZRetUwo8Y7NGzndgdloOG4hB25xWTSSVicyW8W7szVwJA99zMiCyFkNtN/OClxBf8fEOnEjZQePa10ko3RaIgz1Z/SYd+p8M+Hm8qEfnmXRAf67NBD+8WQ3kqETwbSysA9BGpRBtFGOFShof2HtUnPP7NHVwMYb+7ka+xJZMsYjmFv20YKGTt86+QyKI+G0MqgWFI0KCpQ4o0JpUQbq5BhY75t1IqUey5dIhUKuFPoxhGm4+ZmkyBVALAFnPv7f/q7nx56ZK908R3DreeJuEMmUp4yYKUzReKNe4uEpudSoS3KJY5bvkar0+OpBL+hgUJNfKevG4OBYA+IpVoweUL+sWN6PcjJIAoVi4f3K23nKxmEOEaf+dWkYAIyUFMZVGIxBP1wUS4Q6AVCRo0dUiRxqQSjksF2ocImYG/wZGtGSGVyPZjJ00Uh64czntFwTSQobT6mImHDqQSALYed+dLq90dLn3DpRL2xpalNMHeLcL7moa7eUSRSpTyC/8emeNMJcKvV0Sih5pUora7Dn7JqFsklQC2iz6kEpI1nDj1hizeufO+PLjnyON8pdxaYqAbXpZzBAkF/C9xuByh5jdfJFKJaMZRXimpRCllaMgdZNtBvmMCCAkaNHVIkcakElY8FLBrNREofaHDPKN3uww39BeDTcrRQOtUIhqImNaPPrnvUT+tsM28w7nF/Ggu2ihFGPFjNWj5MRP8nM3ykwhSCQBbxo0z/89TT/8/g02TcIZKJYIMwpQ3OSKbN+GnEsWv6nCL+bbjSyXCoMHwO2Hpz+tSCflVHUVvb7p3edafHOH6fFIJYPuY+lTiSPZLN2SixJWla2akdPPmrXv37pkHpswDs2gerFy9bhosr6yeOXtetnI7SApDB7nHRBEKuIwg9p0OqzmVyG5X4Z4olIKP6h5q72cpUzbqTwZoIEGDpg4p0phUQgft4cjfKo3tXaygijhABvyGaxaGC3Y5UwoC2qcSxXErGUQRM2Q7PG7nbgj/SUs2EeFzLQzyMeP/TjirdNmq63Klu6CRSgDY+oZJJez9I7KUIS9NHyz9PaCluRJu9oTjxxljSyVsh1zNC4oO3HTdXp8ciTBKXbrXdduthFnJNziA7aQnqYT89g2zmEwl1tY3BkolwgzCkFAgyykiqYGnOZWo29atHyyVcM3iewPakKBBU4cUaUwqMY38L4OIMOYYt63wMQMAW8HgqURpWkS6Kt/gGKKSnTYpMICxm/pUwlhb3/C/l9HwDQ7TwDQzjWViRQv+PSaDSiQLovqsv6ZuW7e+fSqRnWTNt0iANiRo0NQhRRqTSkyh0n0uBakEAGyOgVOJpl8IGqtNSSWav08HAEPoQyphTOpul43flZAJFDXfwlDNqUTTNzga5mKUz8o1iJ0kMAgJGjR1SJHGpBLTx37dI/YFDVIJAJi8gVOJQWtTUgkAGDtSiSb1iYN3s4m65MJxe6hNJeLbupX5d0YSqUTj0YH2JGjQ1CFFGpNKTBO9x0TkDhSkEgCwOUglACCKVKJB+Es6fTJDQQILCS+8aKD4zaDV35cRpAyyrdcgvLlmIpVovNcm0J4EDZo6pEhjUgm0wQUuAIiJpxLjKDptAJuvV6mE+e/yyqqpIJ4wi7Je7nM5v9Du9gvyKy3qpiEEz0pSoFWdHGFLoofalCErP8IwmlMJDUQiVd4ESJGgQVOHFGlMKoE2uMAFAEEqAQBRPUkl1tb1hpdSwWyI+YWl/ClTclNMAD4JGjR1SJHGpBJogwtcABCkEgAQ1ZNUwlhb35hfWJKqzpWQ9dVpFACEBA2aOqRIY1IJtMEFLgAIUgkAiOpPKgFgFBI0aOqQIo1JJdAGF7gAIEglACDqtdNv6qPukEoA3ZOgQVOHFGlMKoE2Tp46u7yyqgsAsF2ZntD0h7qQOfHaG+/OLwW5QLdFKgFgk12cv3L6X87pQndIJYDuSdCgqUOKNCaVQBtXr6298qvXCCYAbGemDzQ9oekPdTlj1rz4y7ktFUyQSgDYTPOXLp/69VsLLX8fxSSRSgDdk6BBU4cUaUwqgZbMZffJU2fNlS5FUdT2LNMHViMJYdafeO2NoH2HderXbwZrKIqiJlSmb/z1v5zbCpGEQSoBdE+CBk0dUqQxqQQAAACAHiCVALonQYOmDinSmFQCAAAAQA+QSgDdk6BBU4cUaUwqAQAAAKAHSCWA7knQoKlDijQmlQAAAADQA6QSQPckaNDUIUUak0oAAAAA6AFSCaB7EjRo6pAijUklAAAAAPQAqQTQPQkaNHVIkcakEgAAAAB6gFQC6J4EDZo6pEhjUgkAAAAAPUAqAXRPggZNHVKkMakEAAAAgB4glQC6J0GDpg4p0phUAgAAAEAPkEoA3ZOgQVOHFGlMKgEAAACgB0glgO5J0KCpQ4o0JpUAAAAA0AOkEkD3JGjQ1CFFGpNKAAAAAOgBUgmgexI0aOqQIo1JJQAAAAD0AKkE0D0JGjR1SJHGpBIAAAAAeoBUAuieBA2aOqRIY1IJAAAAAD1AKgF0T4IGTR1SpDGpBAAAAIAeIJUAuidBg6YOKdKYVAIAAABAD5BKAN2ToEFThxRpTCoBAAAAoAdIJYDuSdCgqUOKNCaVAAAAANADpBJA9yRo0NQhRRqTSgAAAADoAVIJoHsSNGjqkCKNSSUAAAAA9ACpBNA9CRo0dUiRxqQSAAAAAHqAVALongQNmjqkSGNSCQAAAAA9QCoBdE+CBk0dUqQxqQQAAACAHiCVALonQYOmDinSmFQCAAAAQA+QSgDdk6BBU4cUaUwqAQAAAKAHSCWA7knQoKlDijQmlQAAAADQA6QSQPckaNDUIUUak0oAAAAA6AFSCaB7EjRo6pAijUklAAAAAPTAeFKJtfWN5ZXV+YUlU+aBrnXMU7Le1K3bd3TtgJb273zgwYce2HFgSVcM6djuhx54cOfBRV0cC7fPrHbP6VpgEBI0aOqQIo1JJQAAAAD0wBhSiVu37xx59XRe5y7M6xPO/MKS/+xQwcTywR0y7B8wUDg6G2wy9lTC7HDvUX18f/HAzDiiE2xDEjRo6pAijUklAAAAAPTAGFIJyR3OnD2/vLJqam19Q59wbt2+I9MoTpx6wzQzD/SJ9txof2b3rP3v/gFGYpOYGdFs84+IfpCgQVOHFGlMKgEAAACgB8aQSpy7MH/k1dNBGFFlGphmwUyKNuTrG3uPzu210yVmj+nqtM3PCNypkkpgYBI0aOqQIo1JJQAAAAD0wNZPJYowwqUM3jcmCtJGyoUC9rsb+RpbMskillP424Y3hsja518hkUV9tsq1HyA3AYQEDZo6pEhjUgkAAAAAPbDlUwmXL+gXN+TGDcEdJSWAKFYuH9ytd3aoZhDhGn/nVjgdw7W3lUUhEk/Eg4lsTocuAu1J0KCpQ4o0JpUAAAAA0AOjphKSNZw49YYs3rnzvjy458jjfKXcWmKgG16WcwQJBfzJCC5HqLnBZCKViGYc5ZWSSpRuZhEGGd40Cu5ziWFJ0KCpQ4o0JpUAAAAA0AMjpRJHsl+6IRMlrixdMyOlmzdv3bt3zzwwZR6YRfNg5ep102B5ZfXM2fOyldtBUhg6yHyEIhRwGUHd9ITmVKJmakMp+KjuIZ5lCJm1QTaBwUnQoKlDijQmlQAAAADQA2NIJeS3b5jFZCqxtr4xUCoRZhCGhALZyD+SGniaU4m6bd36oVIJI5xJAbQiQYOmDinSmFQCAAAAQA+M4Rsc/vcyGr7BYRqYZqaxTKxowb/HZFCJZEFUn/XX1G3r1g+bSsjkjtpngTgJGjR1SJHGpBIAAAAAemAL3+2ybvzvzUdovsFkcyrR9A2OhrkYpBKYAAkaNHVIkcakEmhvfeO9+cWVcxcW3zq/QFEUNY1lejDTj5neTPu1GPo6iqKmupId3c1bt5eXVxcWl7sqc3RzDno2Y7V1U4n6xMG72URjRuD2UJtKxLd1K/OvYAycSvANDgxFggZNHVKkMakEWlq5tn5xYXn52hoX6xRFTWnJlbrpx0xvZvo07d3K6OsoiprqSnZ0N2/dXlhcXlu/cfPWna7KHN2cwySCiS2bSrjoofTrNgouLNDAQsILLyYofjNoNSMIUgbZ1msQ3lwzkUqY/fv3tpSn/DVAOxI0aOqQIo1JJdDG+sZ78tlm/rtx4+YHH3ygTwDA9DB9l+nB8t6s+oNE+joA0y7Z0S0vr3YbSUiZczBnouc0PmNLJcx/l1dWTQXxhFmU9XKfy/mFdmN2Fyg0T0konpU4QKs6OcKWRA+1KUNWwTSHRCphyJlkVfddEqCZBA2aOqRIY1IJtJGH7lyjA5h2ph8zvZnMhtBVGfo6AP3Q0NG5SQphRtBJmTPRcxqfMaQSa9kNL6WC2RDzC0v5U6bkppgAfBI0aOqQIo1JJdCGzAbcuHFTlwFgmpnezPRppmfT5Qx9HYDeqOvoSCXS1tY35heWpKpzJWR9dRoFACFBg6YOKdKYVAJtyNcU+eEhgH4wvZnp00zPpssZ+joAvVHX0ZFKAJgsCRo0dUiRxqQSaMN8pFU/1QBgekW7Nfo6AH0S7dNIJQBMlgQNmjqkSGNSCbTBlTqAnol2a/R1APok2qeRSgCYLAkaNHVIkcakEmijxZX6BxRFUVupEqLdGn0dRVHTVk2ifRqpBIDJkqBBU4cUaUwqgTa4UqcoatoqIdqt0ddRFDVt1STap5FKAJgsCRo0dUiRxqQSaIMrdYqipq0Sot0afR1FUdNWTaJ9GqkEgMmSoEFThxRpTCqBNrhSpyhq2ioh2q3R11EUNW3VJNqnjZhKrF5fX165KmUeB88OVKQSQD9J0KCpQ4o0npZU4vi+mZmvHA661dLKxcOPzpQ8+lzRfOE58+STx3UJA+NKnaKoaauEaLdGX0dR1LRVk2ifNkoqsXL12vG5uWMZ89isCdq0L1IJoJ8kaNDUIUUa9yyVKIKH40/6wURfUomFw1+ZmdnXwevgSp2iqGmrhGi3Rl9HUdS0VZNonzZKKrG8cnVubu7cubfNA/Nf89g8CNq0L1IJoJ8kaNDUIUUa9zaVKA/gSSVGxJU6RVHTVgnRbo2+jqKoaasm0T5t0FTi3Xcvvvrqqzo7op5pY1oG2zYXqQTQTxI0aOqQIo1JJQp2esWjhxfdLAvhj/+91d56PYo9k3xqRouWlnuqWAxenbcT3W3wFZV8z9WWhr4b8px5UWaVOwHhv652Wl6pnznzLwcOHHjnnQvehyVFUVQnlRDt1lr2dQOV6RJNx2i6x2A9RVHUOKpJtE8bNJW4vvab8xfeOX/+QqIuvGNaBts2F6kE0E8SNGjqkCKN+5pKuBhCRuP5YptUwsiaSQqgA/jjT+Yjebc+G//rUN/bdbuWsvP82VLL8tlWd+JlCrUtdf/FeZXeq+OH83empZZX6qQSFEVtmUqIdmst+7qBilSCoqhJVpNonzZoKmFq/Tc3Tp8+/dZb50yZB5cWFk+ePGn+6680bYKtkkUqAfSTBA2aOqRI497e7bI8HaB9KuE3qtvKHlf372KCyonlwpbFWYUbei3tefhH9V5msJP6luWYo7LhwFpeqZNKUBS1ZSoh2q217OsGKlIJiqImWU2ifdoQqcTq9fWTJ0+edcyDd9+9ODc3Z/7rrxzi93GQSgD9JEGDpg4p0riXcyVcmlBMlDBapxLlNnZNtp8g9YjHBE67ll4MYQWBQii6k4aW3rsh3DtglN6W9lpeqZNKUBS1ZSoh2q217OsGKlIJiqImWU2ifRqpBIDJkqBBU4cUaTz1qUR5iJ6Pw4P2I6YSMqTPpx54Ow+zhvYtSyfvt7QvpC47qKYSNS0rqYTjNrcGziZaXqn7qYRciB88ePDatavy1I8yr7zySt7Av1I3a0x72ZyiKGq0Soh2a8m+rtpx+f2e6dy0m8s6OlP+Jua/ea9oyjwwi3lLU/4e/KNQFEXVVJNon0YqAWCyJGjQ1CFFGk9LKhGLFewYu/iSQjAOd4v5s61TidJwPUsKgkDBLcazhvYt61MJOY/iyxe+YCf1LeOphGjYf63klbp8NOZX53Kp/c///M/vvXfDrDfX2fmFuFygmzXmKdPg5z//uWxryjzON6EoihqtEqLdWrKvi3Zcsmg6t1dffVVWms4wjxXapxJmP3kf6O+BoiiqvppE+zRSCQCTJUGDpg4p0nhaUgkZS2fjdssO4/1xd2Uc7pIITRlapxLeIdyibONFBjoboilraN+yZkP30op8xOwnP3W/mVHbMnw3Fg7vy7eaeCrx1ltvmgvr/NpaLrv9a+v8yttPK6rNKIqiRqiEaLfWpq9r03FJeCFxQ8tUwjQzj81/5alq/EFRFBWrJtE+jVQCwGRJ0KCpQ4o0np5UwnAD+5w3OLciswOKIEMDAk9kWO5G64eP2/0Ib2+SWFhmQy8aCLOG9i3tUzWphOGfcOlU3cu0sm3jLavvRnFesdee0uZK3ZS54DYX3+bCOo8kTMkVuZuPXJAG/gV9cLFOURQ1WiVEu7U2fV1Dx2UWtY9z8jkUbVKJYFtBKkFRVKqaRPs0UgkAkyVBg6YOKdJ4qlKJCZNUYsAbLmwTba7UTclV9bPPPmsuwfOf+AU/AAzKXHPLZXf+gKIoahyVEO3WWvZ10l/5EyJkpekAJX3wZzq0TyX8pyiKotpVk2ifRioBYLIkaNDUIUUak0oUSCXqtbxSN1fVkkeYa/E8mPAvu6slF+LvvvvOs88+W5dcUBRFDV4J0W6tfV9nOi75b7Sjk8VoKuGHtv5WfjOKoqjW1STap5FKAJgsCRo0dUiRxqQSBVKJeu2v1OWCW35OmF98+yGFKXMJnl955z9RlO90yEqKoqiRKyHarbXs6/KOywjWyKJ5kH//wo8b/LQibyaphOzBPGvayLPmkzrvNimKomqqSbRPGzqVOHHC1vHjx1977bVXX33V/Nc8lpWkEgAKEjRI6JAkjUklCqQS9Vpeqfs/BpQr7Hw+s7nsNo9F/uNEKXkqWElRFDVaJUS7tZZ9nSnpuPKA1ZSkD66T+5G5QM9DCj+VMGUeSBvDXNb7MyxMSU4h/J1TFEXVVJNonzZEKrH+mxunf/3ruXrmWdMm2CpZpBJAP0nQoKlDijQmlUAb7a/Uhyhz5e3/eJCiKGoclRDt1iba11EURU2gmkT7tCFSiQkVqQTQTxI0aOqQIo1JJdDGRK/Uf+4EKymKokarhGi3NtG+jqIoagLVJNqnkUoAmCwJGjR1SJHGpBJoY3JX6u80/oYOiqKoYSsh2q1Nrq+jKIqaTDWJ9mmkEgAmS4IGTR1SpDGpBNqYxJW63PWN705TFDWZSoh2a5Po6yiKoiZZTaJ9GqkEgMmSoEFThxRpTCqBNlpcqQPANIl2a/R1APok2qeRSgCYLAkaNHVIkcakEmiDK3UAPRPt1ujrAPRJtE8jlQAwWRI0aOqQIo1JJdAGV+oAeibardHXAeiTaJ9GKgFgsiRo0NQhRRqTSqANrtQB9Ey0W6OvA9An0T6NVALAZEnQoKlDijQmlUAb5y4scqUOoE9Mn2Z6Nl3I0NcB6JNoR0cqAWCyJGjQ1CFFGpNKoI35xRXzqfbBB4lbPQPAVDC9menTTM+myxn6OgC9UdfRkUoAmCwJGjR1SJHGpBJoY33jvXPvLP5m4z1dBoBpZnoz06eZnk2XM/R1AHqjrqNbXl5dW78RBASbX+YczJnoOY0PqQTQPQkaNHVIkcakEmhp4co1uVjnp4gAppfpweRK3fRpuqqMvg7AtGvu6G7eur2wuNxtMGGO7qZs3NZzGp+tn0osH9zx0Mz+xADs2O5km1b7ATohQYOmDinSmFQC7ZnPtrffWTx3wd45iaIoahrL9GCmH6uLJAR9HUVRU13Jju7mrdvLy6sLi8tdlTn6JCIJYzypxNr6xvLK6vzCkinzQNc65ilZb+rW7Tu6diBHZx94cOfB8H4fzuKBmQcfeuDBNnFDq1Riaf9Os7cHdhxY0hVDOrbbnFXNOQMVEjRo6pAijUklMJD1jffke9fB5x9FUdTWL/mKdXU+cxV9HUVRU1rtO7peGkMqcev2nSOvns7r3IV5fcKZX1jyn20dTNgQwQYEldp7NMsOTJXjA5cFeLV7rmhZrd1zulkhP+iAgUIlNyGVwEAkaNDUIUUak0oAAAAA6IExpBKSO5w5e355ZdXU2vqGPuHcun1HplGcOPWGaWYe6BNpywd3hEP9vUftA5s1NE5ncGFEEAqU5krY1KCaSriZFzO7Z+1/B/muBxkERiRBg6YOKdKYVAIAAABAD4whlTh3Yf7Iq6eDMKLKNDDNgpkUzVy4MHtMFux8hNmD7teQJFIJ29LlF+5Bc/npg0ys2Ht0bq99KjtuC6QSGJEEDZo6pEhjUgkAAAAAPbClUwmZ4GDzBTeLQSZKGE2phMx3iMx0SM6VKMIIlzIUh/NIGykXQ1SCDzlELKfwtw2PnrXPv0Iii/osek+CBk0dUqQxqQQAAACAHtiiqYRMW4jXjgPHalMJN/L3BvxN+wlSCZcvaGwhN9GMNfBWLh/credQzSDCNf7OrXA6huQgprIoROIJgontQoIGTR1SpDGpBAAAAIAeGDWVkKzhxKk3ZPHOnfflwT1HHucr5dYSA/8mDjukL32foiZr2Hnw+fLMhVKskJgrUc4RJBTwD+pyhJoJGolUIppxlFdKKuHFFtUgA30mQYOmDinSmFQCAAAAQA+MlEocyX7phkyUuLJ0zYyUbt68de/ePfPAlHlgFs2DlavXTYPlldUzZ8/LVm4H7URTiSwgqOYLTimDcKprfGHoIMFH0d5lBLHvdFjNqYTsqrJtKfio7iGeZaCnJGjQ1CFFGpNKAAAAAOiBMaQS8ts3zGIylVhb32idSpTvwuCVGd7XpRLeY7u5aelG+3VVJB1hBmFIKOAfJUgNPNVn/TV127r1pBKwJGjQ1CFFGpNKAAAAAOiBMXyDw/9eRsM3OEwD08w0lokVA6jMlbBj+EgSISN519I+CIKAhrkSMm0hWolkQVSf9dfUbevWk0rAkqBBU4cUaUwqAQAAAKAHtujdLi03LLdffJBUwvxXh+ilfMGO54uhuz6lkync1y6aSqZC1I3/3eZyoJpvYahqpuCvafoGR8NcDFKJ7USCBk0dUqQxqQQAAACAHtiyqYQ3aNe5ElkYUZ4HUU4lNEqoSwGicyXqEwfvZhONGYHbQ20qEd/WrSxlK6QS25gEDZo6pEhjUgkAAAAAPbBVUwlNIsqP7UB99qDMg5CnqqlEdIRv1aUScgOL7FhlblcaWEh44R2r+M2g/qwKEZyDbOs1CG+uSSqxzUnQoKlDijQmlQAAAADQA2NLJcx/l1dWTQXxhFmU9XKfy/mFfCTemp9QuLG6P68hTCVs4517d7sEIT4DoswFCrWD/+BZSQq0SiGC5BemJHqoTRmyCvIRUoltToIGTR1SpDGpBAAAAIAeGEMqsZbd8FIqmA0xv7CUP2VKborZjvsSR3kMH2YQwRo3ks8b6+yGxgrSAaATEjRo6pAijUklAAAAAPTAGFIJY219Y35hSao6V0LWV6dRjN2x3aQMmEoSNGjqkCKNSSUAAAAA9MB4UgkAo5CgQVOHFGlMKgEAAACgB0glgO5J0KCpQ4o0JpUAAAAA0AOkEkD3JGjQ1CFFGpNKAAAAAOgBUgmgexI0aOqQIo1JJQAAAAD0AKkE0D0JGjR1SJHGpBIAAAAAeoBUAuieBA2aOqRIY1IJAAAAAD1AKgF0T4IGTR1SpDGpBAAAAIAeIJUAuidBg6YOKdKYVAIAAABAD5BKAN2ToEFThxRpTCoBAAAAoAdIJYDuSdCgqUOKNCaVAAAAANADpBJA9yRo0NQhRRqTSgAAAADoAVIJoHsSNGjqkCKNSSUAAAAA9ACpBNA9CRo0dUiRxqQSAAAAAHqAVALongQNmjqkSGNSCQAAAAA9QCoBdE+CBk0dUqQxqQQ229yeR75waEUXGpVarhz6wq5DV3TBLT6yZ04XAAAAAFIJoHsSNGjqkCKNSSWw6RoChZN7HnmkSCKC/MIsPrLnpH1k97DrmVbJBgAAALYJUgmgexI0aOqQIo1JJTC69Ve+/e1X1nWhlo0SKvaclCRCSeiQyVMJm0fUaDntAgAAAH1HKgF0T4IGTR1SpDGpBEa38syudjMXTu4pcod8xoS/ssxPJaITKPzHAAAA2N5IJYDuSdCgqUOKNCaVwOhapxL37185tMtmEP5XMGKphG1W2POETR8OPeFSDE0izFa7Dj1DKgEAAABFKgF0T4IGTR1SpDGpBEbXKpWYi38LY9czh6pP6F0n8qkQ2YOTT+w56R4fMg/8BgAAANj2SCWA7knQoKlDijQmlcBwbq+vr69qvf5Pf/Zn//R6vri+flsbxQV3u8znSgTry6lEHVIJAAAAOKQSQPckaNDUIUUak0pgKJcOffHTn/6TrD76O7/zUW/x3/3obW0WNXgqAQAAAKSQSgDdk6BBU4cUaUwqgdG1u6/EydiEhz0n9U4TRkMqYZ+K2XXoimsJAACAbY9UAuieBA2aOqRIY1IJjG6Au11a5fThyqFdXvRQTSUOPfHIrmdOhk9Z7oaXpBIAAABwSCWA7knQoKlDijQmlcDo2qYS9vYQuw5dcemD+7Uadhuz8gn5FRxBKqFzK9wa5koAAAAggVQC6J4EDZo6pEhjUgmMrvXv4JAQIUsfbB5xyEsivFTCfq3DTxyCwEIwVwIAAAAFUgmgexI0aOqQIo1JJTAGd2/fvqsPW/AiBvcdjSzPiEYPwj4VQyoBAAAARSoBdE+CBk0dUqQxqQQ2UR4u5Le3TE6IENGnmCsBAACAAqkE0D0JGjR1SJHGpBIAAAAAeoBUAuieBA2aOqRIY1IJAAAAAD1AKgF0T4IGTR1SpDGpBAAAAIAeIJUAuidBg6YOKdKYVAIAAABAD5BKAN2ToEFThxRpTCoBAAAAoAe2fiqxfHDHQzP7EwOwY7uTbVrtB+iEBA2aOqRIY1IJAAAAAD0wnlRibX1jeWV1fmHJlHmgax3zlKw3dev2HV07kKOzDzy48+CiLpUsHph58KEHHmwTN7RKJZb27zR7e2DHgSVdMaRju81Z1ZwzUCFBg6YOKdKYVAIAAABAD4whlbh1+86RV0/nde7CvD7hzC8s+c+2DiZsiGADgkrtPZplB6bK8YHLArzaPVe0rNbu6q/Xzw86YKBQyU1IJTAQCRo0dUiRxqQSAAAAAHpgDKmE5A5nzp5fXlk1tba+oU84t27fkWkUJ069YZqZB/pE2vLBHeFQf+9R+8BmDY3TGVwYEYQCpbkSNjWophJu5sXM7ln730G+60EGgRFJ0KCpQ4o0JpUAAAAA0ANjSCXOXZg/8urpIIyoMg1Ms2AmRTMXLswekwU7H2H24KIdiSVSCdvS5RfuQXP56YNMrNh7dG6vfSo7bgukEhiRBA2aOqRIY1IJAAAAAD2wpVMJmeBg8wU3i0EmShhNqYTMd4jMdEjOlSjCCJcyFIfzSBspF0NUgg85RCyn8LcNj561z79CIov6LHpPggZNHVKkMakEAAAAgB7YoqmETFuI144Dx2pTCTfy9wb8TfsJUgmXL2hsITfRjDXwVi4f3K3nUM0gwjX+zq1wOobkIKayKETiCYKJ7UKCBk0dUqQxqQQAAACAHhg1lZCs4cSpN2Txzp335cE9Rx7nK+XWEgP/Jg47pC99n6Ima9h58PnyzIVSrJCYK1HOESQU8A/qcoSaCRqJVCKacZRXSirhxRbVIAN9JkGDpg4p0phUAgAAAEAPjJRKHMl+6YZMlLiydM2MlG7evHXv3j3zwJR5YBbNg5Wr102D5ZXVM2fPy1ZuB+1EU4ksIKjmC04pg3Cqa3xh6CDBR9HeZQSx73RYzamE7KqybSn4qO4hnmWgpyRo0NQhRRqTSgAAAADogTGkEvLbN8xiMpVYW99onUqU78LglRne16US3mO7uWnpRvt1VSQdYQZhSCjgHyVIDTzVZ/01ddu69aQSsCRo0NQhRRqTSgAAAADogTF8g8P/XkbDNzhMA9PMNJaJFQOozJWwY/hIEiEjedfSPgiCgIa5EjJtIVqJZEFUn/XX1G3r1pNKwJKgQVOHFGlMKgEAAACgB7bo3S4tNyy3X3yQVML8V4fopXzBjueLobs+pZMp3NcumkqmQtSN/93mcqCab2Goaqbgr2n6BkfDXAxSie1EggZNHVKkMakEAAAAgB7YsqmEN2jXuRJZGFGeB1FOJTRKqEsBonMl6hMH72YTjRmB20NtKhHf1q0sZSukEtuYBA2aOqRIY1IJAAAAAD2wVVMJTSLKj+1AffagzIOQp6qpRHSEb9WlEnIDi+xYZW5XGlhIeOEdq/jNoP6sChGcg2zrNQhvrkkqsc1J0KCpQ4o0JpUAAAAA0ANjSyXMf5dXVk0F8YRZlPVyn8v5hXwk3pqfULixuj+vIUwlbOOde3e7BCE+A6LMBQq1g//gWUkKtEohguQXpiR6qE0ZsgryEVKJbU6CBk0dUqQxqQQAAACAHhhDKrGW3fBSKpgNMb+wlD9lSm6K2Y77Ekd5DB9mEMEaN5LPG+vshsYK0gGgExI0aOqQIo1JJQAAAAD0wBhSCWNtfWN+YUmqOldC1lenUYzdsd2kDJhKEjRo6pAijUklAAAAAPTAeFIJAKOQoEFThxRpTCoBAAAAoAdIJYDuSdCgqUOKNCaVAAAAANADpBJA9yRo0NQhRRqTSgAAAADoAVIJoHsSNGjqkCKNSSUAAAAA9ACpBNA9CRo0dUiRxqQSAAAAAHqAVALongQNmjqkSGNSCQAAAAA9QCoBdE+CBk0dUqQxqQQAAACAHiCVALonQYOmDinSmFQCAAAAQA+QSgDdk6BBU4cUaUwqAQAAAKAHSCWA7knQoKlDijQmlUB76xvvzS+unLuw+Nb5BYqiqGks04OZfsz0ZtqvxdDXURQ11ZXs6K5eWzt56uyLv5zrqszRzTno2YwVqQTQPQkaNHVIkcakEmhp5dr6xYXljRs3P/jgA10FANPG9GCmHzO9menTdFUZfR2Aadfc0V29tvbKr15bXlnV5S6Yo5tzmEQwQSoBdE+CBk0dUqQxqQTaWN94z3y2cY0OoB9Mb2b6tOoPEunrAPRGXUd38tTZbiMJYc7BnIkujA+pBNA9CRo0dUiRxqQSaGN+cWXjxk1dAIDpZ/o007PpQoa+DkCfRDu6F385p4+6NokzIZUAuidBg6YOKdKYVAJtnLuwyA8PAfSJ6dNMz6YLGfo6AH0S7ehIJQBMlgQNmjqkSGNSCbTx1vkFfQQAfVHt2ejrAPRMtVsjlQAwWRI0aOqQIo1JJdAGV+oA+odUAkDvkUoA2GwSNGjqkCKNSSXQBlfqAPqHVAJA75FKANhsEjRo6pAijUkl0EaLK/UPKIqitlKlDZVKBEehKIrqthJIJQBsNgkaNHVIkcakEmiDK3WKoqat0kglKIqa/koglQCw2SRo0NQhRRqTSqANrtQpipq2SiOVoChq+iuBVALAZpOgQVOHFGlMKjF1ju+bmdl3XBc2C1fqFEVNW6WRSlAUNf2VMP5U4vb6+mpWt3XdcEglgH6SoEFThxRpTCoxRgvPPToz82QYGBx/cmbm0cPh74oeHqkERVFUi0ojlaAoavorYdypxMm//91HCr/79yd1/TBIJYB+kqBBU4cUaUwqMUakEsPWS49/6EOf+IE5RLCeoihq6ErbUqnEL7/2oQ998unFynpXE+0kF77/yQ8Zj78crE+XPedt0Htvk5e5qfXyY+Yd/f7FynpqmEoYeyqx55FHZl9wEyVemH3kkT2kEgBCEjRo6pAijUklxohUYthLZ1IJiqLGXmmkEq5IJRJFKjH+IpUYZyWMIZV466k/1qkRzf74qbd0i5ZIJYB+kqBBU4cUaUwqMUbtUomFw1+ZyfiN/fXlFGPxsNmv2nc8TCXs/tWjz2UfPG6TJ4/Lc7I3b/+DhxqkEhRFTVulbXoqoeN/z2O/zJ4dMZVY/MEndJdWsdvRyh43034MmXqZId2zewnlM7/4tFmVjksizdw5fO0lb0205AV6B3W7avUGasuy9BFN+e9qpvaPvlSVd88/z8huB0maSpsXf9navEy/TfFCGl/mkKlE5c8r+5v/iR+ccH/rqn9wbpPihGteZuNfWlv2hDOt/pRHrNT5lCphDKnE3ZXXX/nVr9L1+spd3aIlUgmgnyRo0NQhRRqTSoxRi1TCLWTZgc0XsvYLzz2ZJxH+eskX8k3cIYpYoXREv6UGGcXJ2H1+5XB24MOl1KMFUgmKoqat0jY9lShVMAgfIZWQgZY/xnvp8Xaj3KZyw7D8oDL2G2I+RSRrsBV5Rd2lEsW28jIbR4Bh1bzAFjX4yLz8l0ROPj9081+SxpIht/d2Lf7gseDE6l6mC0oaX0X0ZQ7+2rUkAcnfBFl0Zy5/duHfFvfSdGWLlykVvFi3mJ+t+6s1+r+vQSr1dyxhDKmEtf7i7k/bL2688LU/fvzF9fUXv/Z/fM3+7/E//ppdOfvp3S+ua8sBkEoA/SRBg6YOKdKYVGKMNDKI0FTCNsijAUNnNOhSwa7XTUppguWmPGgqYTMOf/OicTnLKG81jOSVulwNVPlXSKU2pYvF8rVU9lMX79pCLxwd/4PZrjfNvD03fGxTFLWtKm2EVML/SWZ5uBL0Qq5Di44Vg5GGDjizDtAI+kCzk2hf54aFia7P7369k4m+Cu+p8qjeP5B7rMJxYLmCl5lVZAgdaeneDdm//xIy2Tl7zbIqzl9O1T9WscZu+Inv/+Cx7JWardziIC+z5gUWn2VOrEFsZG73Zke8xadeeObeeFjek+zEIm9pWDIsF8UfrjtW+c+6WvGX2SZciLYpr8z+cL233ZxP/N+CNnavtPwvTtqXX4j7E5QGrV6mVOnFVv92ubex7u9DpaL/yspnLuUOFP0TDN784P3RnqnemFKJlUNfeGTXMysrz+x65AuHVq4c2vXIrkNXyiu15QBIJYB+kqBBU4cUaUwqMUbJuRJuEkQo3yB41q23aYIXLli2meQLOiGizEsl/FPJEpN81sZgWl+p110VBR/A7uKguLTytpJPWf+nEOXPae8KQze09DrDHcXflqKo7Vtpw6YSpeGNGzBkg43KcKX0bLkiIw1LG5efdZ3kJ2W8aha9vq5+JJOVdL/+CLDy8+HquDE67qqudEdvHp4FLzMrr9vPKtKydv/2RRWbR5q5V+1/NOR7dq/C+8QxL9ycjHv55ikd7JXfjcaXGX+BbpPSGWZ/YYqqvu26N3uCur78ntu/JN5nnGuc7yHylvolf8GKV/HyY/q4+scaq9jL9N/k+oq9TH+lvGT/zGP/Fvw96F/px79mN/TOvPwHbcv7p9ruZUqVXmzk/BNvtVfeCQQvpHI+lZdZVOl8Ku+P9kz1SCUAbDYJGjR1SJHGpBJj1CqViE9YsI2KbYtMIZlK1KQMlVTCyW8tMXA2MWoqUf1QL30e51u5z+9yrBBchJUPEbYPPrkpitrGlTZcKlHpZ/yxmeuUinFa07AtNtLw+snSSLjSN+ZdaGVsE1a1+61WpU28L60OzhuH61I13bLfk2tFWtbs37b0341Is+Cdz/9cyn9AdkP7ws2bb07G/NfuJFuZbZt4mfEXONTbbsrtzT9W6Y0qfSC6s/LeB/fSPKUTrn8J7i9e9Q8orNjLlHN7yWUBKnKI6FuRr7QPwr8J4b+F8ptgS167EfzjcnsrzsE7dMuXKVV6sZG3rvy3qL4qb9pk+ooUUgkAm02CBk0dUqQxqcQYJVOJeAPDa2O5jCJPJcpBhntO17jNypmFiqcSon6reiOmErGrAb+lPH7afkL7F5phM6nwQ91/NnbZRFHU9qy0oVKJyODBdnFZ31Xq7gYZzfo7sVXattITumfNGreTUjPln0/Yr1aqMm6M96XZQYM1dS9QqqZbrvbtsZbR/VdXRppV/pjceNXxDmFXukWzh09+4hP54/K7ET+NrBreq+BdDavytpuq7K30Rrm/XYXgDfTL7adoUPOnYKv0N7a+6v50/JcgBw3fqNjL1JX2yzKRV1H5S1v9R+fWRLZ1/wSylv5+Wr5MqfKLlWMV2+qfQrkTiNVm9RUppBIANpsEDZo6pEhjUokxSqYSEhZ4KcPxJyNfuHC5Q77olvIQQb/lke3BLRZxhjkB3SpMJRYO78tvTtFRKhFeFvuXDu6xCD7m9aKnwtvQP1zDhRdFUdus0oZKJbz+ypd3cd7owvZIYddXVGKkURqlVLvWbI0bbAeDGW9XkXFRpCrjxnhfWh04NQ6lpGq65eorirWM7D/2ito1c4PAcjP7wuWItr2ez4Avs+YFmvL/qsQaxIbrlb2V3ijvT1Z2Hj2ulHsHsr9RsU9hLfe2NOxHq+5Pp/yHGPvTib1M+Xsrqm9s5WzD3bqTEeGevZdTeetavEypyot1J5B5/OXI395Y+X8BPPlL8/5e2SPW/AGZCs6n8v4kkEoA2GwSNGjqkCKNSSXGKJ1KWBo6OEVjt6148niQKXhbmJXB10C8Db2soTpXwtvJoJGEMaFUImuZPZbLlNIFTfNnf/hs5LKJoqhtWmlDpRKxcVep8gb2QX33lRpplEbClZ4wfzYyMiztKtb9Vqo6bqwdSZZXlk4yXjXdcqRvj7Ss7D++t8hpRMexcicC7yXYV9Rib40vs+YFeiUfbdU2sTe5srfSG1X603S7bfgLZhtnu2o4SfdU4g/RVGwP1T/E2L+O2MvMV7qTDI9e+Utb3q3747AN5I0N/nq7lXaH5eO2fJlSDW+Xrca/D17F3o1S5Q3sg4Y/yuB8Ku9PAqkEgM0mQYOmDinSmFQCbbROJWo+g6sXJaU1xZWNXDd4n83NH+rhJVHiSoKiqG1UaUOlEtUhQaVs//bYL+3QpTIY8yrYT7jb0sgn2tfJzl0nWT4ff1dey/qqdtHuiEHfG3nhLYZnNW9XdUAbO9XgxOoO59aX91bef9HAva7Sm1P5yKgepfFltvrcibzD8ZWVvZVeSPnNdH/0tYcu/wnaY9W8BPfq6j9ntWIvs/oBHfljTb12eRWlBo3/FkrtbcvwiPrCoztJvkypmr+0WvatqDwbO5PEfmzZ92HkviKFVGKrWT6446GZ/YkB2LHdyTat9gN0QoIGTR1SpDGpBNponUrIB3P1wzW4bi5fLVWvuvyLJ3ctFV7laIUXQK2uDimK2haVNlwq0WJ447q4SJuXHs/XuJ343Vc40iiNxMp9XbCtnE/toEVOpugYW/0ODu1Oi67YLVb69tJJ5tX0MrMKe+98ZfDR4C1Wx8BFuQ+O4jWWF91+8jfE+0yp+cionFv8ZWpFd2JW+u2D09Oqfdv9lqWTCf+S1H4+ytDd309l8J//Dg49aOm9rf4lib9X7gTy/bR/meWV7g/I27D8MkvXD3Kq3ksOtzXlTsMK3pnGl9nmL62p6hsrJadR/tMxJf82a/7Suso2DNu07yvM+gRSiWGsrW8sr6zOLyyZMg90rWOekvWmbt2+o2sHcnT2gQd3HizmUXsWD8w8+NADD7aJG1qlEkv7d5q9PbDjwJKuGNKx3easas55SHN73SvVqpyhO2Je4z00Jk6CBk0dUqQxqQTaaJ9KZJ/ZyvscrVtvqnTVlbcs1sjneqF0KePvKn7ZRFHUdqy0IVMJW9lYIhMMWWVcFBnHulGcKHeDwUgjHAnnAy1R2XOpgzXKO6/pfsOu1fHPwTvbctcavnzHa9D8MkP+kLW050r3HvIblPbsjdnktfvvmLQ029Z8ZOSfLI0vM/rueWPLmvMxFdtt1qBySvnJ2EW7z9Ku5NW59sH5xEbCpVMKGpQ3L97Y1Mss/SVp/TLLqUR+FF1TOk8jP5wcq3SU2Eo9Jf/vVVZ1L9OU90JK68vnEzyVl7SJPRu+D+PpKzzaM9UbYyrxsX8/O/vvP/bIx3bN/vUu+7+/nrX/k5V9SiVu3b5z5NXTeZ27MK9POPMLS/6zrYMJGyJ4w+yi9h7NsgNT5cF5eWT+0AO754qW1dpdfTfzgw44qq/kJuNOJYJIRRKKYv/2ZXpvhbwPTAyZIhI0aOqQIo1JJdDGIKkERVHUVqi0EVKJRLlhQ3W4S1FUuuw/nyB66G8N0VdU3p+EMaUS6y/+9ac//Sf19dcvrmvLAWzRVEJyhzNnzy+vrJpaW9/QJ5xbt+/INIoTp94wzcwDfSLNDMXDof7eo/ZBMAivcmFEEAqUBvZ23F5NJdzMi5nds/a/gwzpx51BVC0vBTuXSSLZS1haDM5W4pXZY7qIrU6CBk0dUqQxqQTaIJWgKGraKm1iqUTp59sURQ1U2ymVGKav6CiVmIgtmkqcuzB/5NXTQRhRZRqYZsFMimYuXMiG1nY+wuxBN/xOpBK2pcsv3IPm8tMHdzizocxEGGBIP/lUosqdZGS6h3KnRCoxNSRo0NQhRRqTSqANUgmKoqat0iaTSrhJ9dvmJ70UNfbaNqnEkH0FqUSzLZ1KyM/8bb7gpgbIRAmjKZWQ+Q6RmQ7JuRJFGOGG9MXhPP7NHVwMUQk+5BCxnMLfNjx61l7mOEg1xxykEr0iQYOmDinSmFQCbZBKUBQ1bZU27lQi+wI5kQRFjVDbIJUYqa8glWi2RVMJmbYQrx0HjtWmEuFYvWk/wZDe5QsaW5S/H6EkgChWLh/credQzSDCNf7OrSIBEa69rSwKkXiiPpgIdxhw+2/8kgu2FAkaNHVIkcakEmiDVIKiqGmrtHGnEhRFUZtfCaQSg5Gs4cSpN2Txzp335cE9Rx7nK+XWEgP/Jg47Ai/92L8ma9h58HkXHORVihUScyXKOYKEAv5Bm8b5iVQimnGUV0oqUUoZGnIH2bZ2KoROuIjN9cAWJUGDpg4p0phUAm20uFIHgCkzVCoBANOEVGIAR7JfuiETJa4sXTMjpZs3b927d888MGUemEXzYOXqddNgeWX1zNnzspXbQTvRVCILCKr5glPKIJzqGl8YOkjwUbR3GUHdOL85lZBdVbYtBR/VPcSzDMOdSf3JyCyM6HuCrUuCBk0dUqQxqQTa4EodQP+QSgDoPVKJAUi+IL99wywmU4m19Y3WqUQ2uq6UGY3XpRLeY7u5aelG+3VVJB1hBmFIKOAfJUgNPNVn/TV127r1g6USrll8b1YWWNSHL9iiJGjQ1CFFGpNKoA2u1AH0D6kEgN4jlRjM2vqG/72Mhm9wmAammWksEysGUJkrYQfnkSRCRvKupX0QDN0b5kroVx5ilUgWRPVZf03dtm59+1QiO8mab5FIsNJwktjKJGjQ1CFFGpNKoA2u1AH0D6kEgN4jlRjYpH4HhxuW2+8pSCph/qtD9FK+YMfz5aG7eUonU2RzB2pLRvixWQmW21wOVPMtDFXNFPw1Ndu6lKFhLkb5rFyD2EkKfaWl7AZTRIIGTR1SpDGpBNo4d2Hxgw/Sd1QCgGlh+jTTs+lChr4OQJ9EOzpSiYTJpBLeoF1SiTyMKM+DKKcS+fg8ngJE50rUJw7ezSbqkgvH7aE2lYhv61aWspWGVKLx6PpeEUlMMwkaNHVIkcakEmhjfnFl48ZNXQCA6Wf6NNOz6UKGvg5An0Q7OlKJhImkEppElB/bwfnsQZkHIU9VU4noCN+qSyXkBhbxIb3blQYWEl54xyp+M6hEIf7Og3OQbb0GXt7hJFIJt/+6mRq6t9rMAlNAggZNHVKkMakE2ljfeO/iwjI/QgTQD6Y3M32a6dl0OUNfB6A36jq6k6fOys0cu2XOwZyJLozP2FIJ819ziqaCeMIsynq5z+X8Qj4Sb81PKNxY3R+fh6mEbbxz726XIDSN5DNuwF87pA+elaRAqxQiSH5hSqKH2pQhqyAfaU4lNBCJlNukvGe/YikMtiIJGjR1SJHGpBJoaeXauvls27hxk+t1ANPL9GCmHzO9menTdFUZfR2Aadfc0V29tvbKr14zw2pd7oI5ujkHcya6PD5jSCXWshteSgWzIeYXlvKnTMlNMduRLyaURtdhBhGscePzvHH9YL4oxu3YCiRo0NQhRRqTSqC99Y335hdXzl1YfOv8AkVR1DSW6cFMP1b94aGPvo6iqKmuZEd39drayVNnX/zlXFdljj6JSMIYQyphrK1vzC8sSVXnSsj66jSKsTu2m5QBU0mCBk0dUqQxqQQAAACAHhhPKgFgFBI0aOqQIo1JJQAAAAD0AKkE0D0JGjR1SJHGpBIAAAAAeoBUAuieBA2aOqRIY1IJAAAAAD1AKgF0T4IGTR1SpDGpBAAAAIAeIJUAuidBg6YOKdKYVAIAAABAD5BKAN2ToEFThxRpTCoBAAAAoAdIJYDuSdCgqUOKNCaVAAAAANADpBJA9yRo0NQhRRqTSgAAAADoAVIJoHsSNGjqkCKNSSUAAAAA9ACpBNA9CRo0dUiRxqQSAAAAAHqAVALongQNmjqkSGNSCQAAAAA9QCoBdE+CBk0dUqQxqQQAAACAHiCVALonQYOmDinSmFQCAAAAQA+QSgDdk6BBU4cUaUwqAQAAAKAHSCWA7knQoKlDijQmlQAAAADQA6QSQPckaNDUIUUak0oAAAAA6AFSCaB7EjRo6pAijUklAAAAAPQAqQTQPQkaNHVIkcakEgAAAAB6gFQC6J4EDZo6pEhjUgkAAAAAPUAqAXRPggZNHVKkMakE2lvfeG9+ceXchcW3zi9QFEVNY5kezPRjpjfTfi2Gvo6iqKmuZEd39drayVNnX/zlXFdljm7OQc9mrEglgO5J0KCpQ4o0JpVASyvX1i8uLG/cuPnBBx/oKgCYNqYHM/2Y6c1Mn6aryujrAEy75o7u6rW1V3712vLKqi53wRzdnMMkgglSCaB7EjRo6pAijUkl0Mb6xnvms41rdAD9YHoz06dVf5BIXwegN+o6upOnznYbSQhzDuZMdGF8SCWA7knQoKlDijQmlUAb84srGzdu6gIATD/Tp5meTRcy9HUA+iTa0b34yzl91LVJnAmpBNA9CRo0dUiRxqQSaOPchUV+eAigT0yfZno2XcjQ1wHok2hHRyoBYLIkaNDUIUUak0qgjbfOL+gjAOiLas9GXwegZ6rdGqkEgMmSoEFThxRpTCqBNrhSB9A/pBIAeo9UAsBmk6BBU4cUaUwqgTa4UgfQP6QSAHqPVALAZpOgQVOHFGlMKoE2Wlypf0BRFLWVKm2oVCI4CkVRVLeVQCoBYLNJ0KCpQ4o0JpVAG1ypUxQ1bZVGKkFR1PRXAqkEgM0mQYOmDinSmFQCbXClTlHUtFUaqQRFUdNfCaQSADabBA2aOqRIY1IJtMGVOkVR01ZppBIURU1/JYw/lbi9vr6a1W1dNxxSCaCfJGjQ1CFFGpNKoA2u1CmKmrZKI5WgKGr6K2HcqcTJv//dRwq/+/cndf0wSCWAfpKgQVOHFGlMKoE2uFKnKGraKm1rpRIvP/ah3NdeCp919cuv2Sc/8QNzkuFTk6qLT3/CHvOxXwbrx1X2VX/i+xcr6yd9XIrqTyWMPZXY88gjsy+4iRIvzD7yyB5SiYEsH9zx0Mx+f/RVWrO0f+cDOw4sycJg5vY++NDeo7qQab/SGuHoQIkEDZo6pEhjUgm00XEq4S5PH3+5sn7EmtBuKYraEpW2tVIJrYXvf3JTUwm7z08+vVhZrzXhdMAePfpiSSUoqm0ljCGVeOupP9apEc3++Km3dIuWtm4qsba+sbyyOr+wZMo80LWOeUrWm7p1+46ubWvQVMImCA/Ea+fBRb+9lzUcna2uPLY7O8rigZkHZ4/ZRyH/6KZ95Yhe7R7sT87tzZ5wmb66aERilM/BP+fY2xLJU+x7GzYLDmfeK7sy/oaEe/APoRuWqvwnK6J/gvpWuBdYd+jpJkGDpg4p0phUAm20v1Jf/IG7klRjuqDcOqmE/8PMktjP+iiK6rLSpi6VmEQlUomJFtEwRY2hEsaQStxdef2VX/0qXa+v3NUtWtqiqcSt23eOvHo6r3MX5vUJZ35hyX92wGCiyCBsBBAOVstVjIG9xKH0OJ5KLC0u2/U2OJCVbmi9e86sL28SClOJmuih4amo2rF3PrCP7M0N5v3zXDwwU35Dgleh72dpV5IpNA378+AjkozY+Ka8Q3PC+aI7+WrAVNlV5FR99gTqn51eEjRo6pAijUkl0Ea7K3V3MV0an7/0+FiurbdOKlHUZo8cKIoasNJIJUx1mEq4FJvZEBQ1YiWMIZWw1l/c/Wn7xY0XvvbHj7+4vv7i1/6Pr9n/Pf7HX7MrZz+9+8V1bTmALZpKSO5w5uz55ZVVU2vrG/qEc+v2HZlGceLUG6aZeaBPtFKkEpnSmprIoEgcyo/jqYSnulJHzuWafTobnGvtOHCwPnoYLJWwo/fqLAlL0oq97r9BcFAbZKi6ob5bX5xbMpWQ9rPlrYTbtiEviKQSjlvvved1p5px2UflD27qSdCgqUOKNCaVQBttrtTd9WXTlIHSNAr/mtumA3ZDmZxsZZfIxZqyUpRQ82Vsezi7n5ce1+eKac+tdpuo6shBQpnyFbYLPvS49S8zq+JUuVKnqJErbfhUwv3TzpSjWNeTeN2d92853QmYiqcSfq8V76kabktRmuSVnU/pJXjyU/IbRM5zmC69XPa9Kn8bxe8DnaZO0n/bXZVe0aBvO0VNbyWMKZVYOfSFR3Y9s7LyzK5HvnBo5cqhXY/sOnSlvFJbDmCLphLnLswfefV0EEZUmQamWTCTopb84N0vHQaPPZVww+BomSOWv74RHM5fzCcRxKttKuHG9vHGOlw/Zg4anXTQMJLPto00KIUCqVRCk4U51yyITtwhGl5mXSoRRir1p5qx7RsbTCMJGjR1SJHGpBJoo8WVuruSrr3UC0bs7soyb5xdSmaXp+7Z8Bo3fiFejkJKG2ZXzNmz7rq8tJP63bao2MihcojS6eVXzLpV+WW6Z8u5CcEERY1SacOmEi897vV17l9ruRcytEG5Y2zuBLTiqYRWTa8l4+1i/cuPFY/NJsXegq7Ylt22tuu2FWswWpcuZTvM/H2LVOW4wX5KfwrS4eevuvSH0vJ8KGpaK4FUYmATSSWEyybyoWzTyN8NUxPRgAzpdUBrR7/lH7nLmLy00u2wGH7bRW/gHaYS/pjcDsJ1pB0+1cC+3vhECXsseSskrykNy+XM4xs6DUN9P9FoTiWKoxQnU3CHSCcasYF06U85nUq4XTW82KkkQYOmDinSmFQCbaSv1N1lX/mnXl5Vrz79AbxcMnrXiOHFqGtQvRCXi8vSQb0DBRepkca1u21T0ZFDcLFbblN5me4M9bI+ev1d+35SFJWutGFTiXKVej/XCfj/lv3er7ETyGrwVGKgrszve13FQodSRRqM2KXnK+tepqtwq6aXWe0wvd643flQ1NRWAqnEwCaXSgSj37rhvZ8OWKWxfSl98FoGqYQMhnfqBA05ioz/vQGwOQF/XO0ftyGVaC98IYVSXmCPFQzL3ZjfVDlnyTUN9d3eZM+NqYS8G/oaIzuUP6zavKAhlZC91e+5wrapeaXTSoIGTR1SpDGpBNoYMZWwl4Dhlbd3EVm51mx7MVq9MvZaVi73K5etdbttVfGRQ+mVBvuvHq44/+oldePIhKKodKWNJ5Uo/ftt7GeaOoG8Bk4lYtFGfVX2kByiVxuM2qWbir2QoCpb2UMYka38TCSrYvPBXzJFTVUlkEoMRrKGE6fekMU7d96XB/cceZyvlFtLtL7hpQySpexQ2Y2fa8obx9pmxWLdCNZbL0N6OyqWle64u+fMMFu+rZBtbtf7uwpTCf98quVnFnF6XF3ylRKB+Ag/CwVMVWOFpqG+l3H4b3hW2Vay//zle1sVijeheqxkKqGbuMdBhe+JPc+aXU0rCRo0dUiRxqQSaGMMqUR4CeiuL70fZDVdMtZcv8psiCppOVIq4a5xC5Hr15qRg7dPewLNryIfkLinIkglKGr4Shs6lah2Ph2mEskxtm1Q5u+h1eblBrFNBunSq91jrGJHcW+O8t63yNvoNpePgBbnQ1HTXAmkEgM4kv3SDZkocWXpmhkp3bx56969e+aBKfPALJoHK1evmwbLK6tnzp6XrdwOGplx7I7ZvTL+tI9r7yjppwNu8OyPlr30wefG+Xa9HS3n7fPGZtyrK+1IWw5amoJhyXHNWZkzNM1K42S725pJB7VqB9tBIpAN3av792KF0hvlD/tDlVQietqVp1zKEPvjKGKFyhsSf3Xl02s61Yw7mdjfhOklQYOmDinSmFQCbbS4UneXpDXXeXWXsG1/sBa7ELcVuxLNa6RUIl11I4d8vX2QOFxx/pVzoyhq1EobLpWQSML7t+z/+23sZ5o6gbwGTiUqfV2p3ODcO0RlD8kherXBqF16ux6v6cTcIYrXVZdKyOaDv2SKmqpKIJUYgOQL8ts3zGIylVhb32ifSrhxvp2qkA9lix/FV0vGsXnWUKsYMwdD30qckXGBiG1ZDhokKTCVpRjVQfi4Ugk559Le5K2oeaXZayxeYNNQ3+1Kdl6fSkQyiMhZFWRyh79JMpXQlk2nmiGVsEgl0EabK3V7nVe5LtSqXjL6a4a+hK1s6Fc6lWh3ZVxT9SMH+9Ie+6U9t/JLbnqZjeMQiqKGqbShUgn3r7W2gwp7lVJH1Gp4PHAq4fqcup7Qnk9pb5U9NIcapiInOWKXXt08VrE3x6vSURq791ZvO0VNbyWQSgxmbX3D/15Gwzc4TAPTzDSWiRUJdlhrRrylgbodP2djUf+xzFmoH8fWjfadfPwcVjbezqZIeEfUHXrHtWtKGcEYUwlJBKJVOzK3uzINslNqGOr7iYBsFTltCUGiVZ8BSWyRBT0NqYR7qsWp5tx51r72qSRBg6YOKdKYVAJttEkl9PK3dK350uN6NRxcx5cvlNOXjG7z2HWzbVlzddsilajdbYtqGDnI+1B5NniZwUDCLZZPj6KoUSptqFSi3O24f9feP95yP+OeDRZrOwGtwVMJ7cq8nrD4HRzlXs4d0SjtIdX5xMbwbrdDdumNL9Cr8LgvP+afpOvhi5ccLLo/o+xVJ86Hoqa9EkglBjaRu10enXUj2JqBulsfHw/XpgzVyoff4Si3HHO4Z92NMIMjes3MWNoMv2UcHqtWQ+j4YNslAtVJHK5xQ/DRbqgvMz6yZnX7rNlc3ur6l+Z2nkwlgoO2TSXiAcfUkqBBU4cUaUwqgTbapRK23LVgzh/wy8WxKl0Bt7pkzIb6jt/YXYx6sg1bpBK6Mle6Uk9U04W1vAnh3tzL9FTClGQDiqIGqLThUolyb2Y6Gb9vKXUpRqkfaPw3Xu48VbZ5uFvH79/Km5e6Jm9b0z1W+ltTpV601IWGvC502C49dgLRqn4QlE+p9PLDZ/0Nm8+Hoqa+EsaYSnzs38/O/vuPPfKxXbN/vcv+769n7f9kJalEO/n4U8auzVU3RE8NYsMBsx0Yl9q7BtWhcpFK6MwOu2E1K/GndTSzLcOjtAwUQqVEoG2sEAQEmbaBQsjlKdmzNTupvIo2qUT8fZ5qEjRo6pAijUkl0Eb7VIIy5YYH4RVz+2txiqLGUWnDphIN5ScUlaITkOygXSJAdkBR7SphTKnE+ot//elP/0l9/fWL69pyANs5lSiRIfdMdkPKlEQqsbRo71WZ5w5u5+WRtqQSleG3bZlvYsf2o6YS7kClFyWD9vjJS6ZgT8C+wNJxw7ghMtSXl1zeczRlkJXxt9o7PXOIcpsghoikEu6swj1HTjVUeZd6QIIGTR1SpDGpBNoglRikaoYlDEgoalMrjVRi06vx/SmVm+LR4oseFLXtK2FMqcREbOlUwvx3eWXVVBBPmEVZL/e5nF9o/Cl4KBYoFIPSykg4LpFKZGT4bas6wp/Zf8COlsvhQpZK2A3dJnZEPVIqEZ6qnFLdayw9q8FKVuXTkPF/uSIjf9lhOZUoso+Y0rOyeV7l03apRFCxP5R0KmFfaWODaSRBg6YOKdKYVAJtkEq0LjerOfrzPQYkFLWplUYqsbWquB2GfB2Db7FRVJtKIJUY2Fp2w0upYDbE/MJS/pQpuSlma+VRuoyBS8NmNxLOxvzByLxNVXbuKh/0ykrZvxtX+6N9TSXsejml2OBfqm0qIUcJJ2Wg4P5EqtHPtJOgQVOHFGlMKoE2SCValPvJnlE35ZgBCUVtaqWRSmy1cl9/E0QSFNWyEkglhrG2vjG/sCRVnSsh66vTKFrIUgn5SXvdT8j15/DDDuazPCJPKLy4oRwouDVmSJzHH3uP2jPMBsmjz5UwSjkLAr2cKGFI0KCpQ4o0JpVAG6QSFEVNW6VNIJWgKIra5EogldhmXNAQ+SpB3c/kbftJz2VIf4the3JhUD8nkkjQoKlDijQmlUAbLa7UAWDKDJVKAMA0IZUAsNkkaNDUIUUak0qgDa7UAfQPqQSA3iOVALDZJGjQ1CFFGpNKoA2u1AH0D6kEgN4jlQCw2SRo0NQhRRqTSqANrtQB9A+pBIDeI5UAsNkkaNDUIUUak0qgjXMXFj/4IH1HJQCYFqZPMz2bLmTo6wD0SbSjI5UAMFkSNGjqkCKNSSXQxvziysaNm7oAANPP9GmmZ9OFDH0dgD6JdnSkEgAmS4IGTR1SpDGpBNpY33jv4sIyP0IE0A+mNzN9munZdDlDXwegN+o6upOnzi6vrOpCd8w5mDPRhfEhlQC6J0GDpg4p0phUAi2tXFs3n20bN25yvQ5gepkezPRjpjczfZquKqOvAzDtmju6q9fWXvnVa90GE+bo5hzMmejy+JBKAN2ToEFThxRpTCqB9tY33ptfXDl3YfGt8wsURVHTWKYHM/1Y9YeHPvo6iqKmupId3dVraydPnX3xl3NdlTn6JCIJg1QC6J4EDZo6pEhjUgkAAAAAPUAqAXRPggZNHVKkMakEAAAAgB4glQC6J0GDpg4p0phUAgAAAEAPkEoA3ZOgQVOHFGlMKgEAAACgB0glgO5J0KCpQ4o0JpUAAAAA0AOkEkD3JGjQ1CFFGpNKAAAAAOgBUgmgexI0aOqQIo1JJQAAAAD0AKkE0D0JGjR1SJHGpBIAAAAAeoBUAuieBA2aOqRIY1IJAAAAAD1AKgF0T4IGTR1SpDGpBAAAAIAeIJUAuidBg6YOKdKYVAIAAABAD5BKAN2ToEFThxRpTCoBAAAAoAdIJYDuSdCgqUOKNCaVAAAAANADpBJA9yRo0NQhRRqTSgAAAADoAVIJoHsSNGjqkCKNSSUAAAAA9ACpBNA9CRo0dUiRxqQSAAAAAHqAVALongQNmjqkSGNSCQAAAAA9QCoBdE+CBk0dUqQxqQQAAACAHiCVALonQYOmDinSmFQCAAAAQA+QSgDdk6BBU4cUaUwqAQAAAKAHSCWA7knQoKlDijQmlQAAAADQA6QSQPckaNDUIUUak0oAAAAA6AFSCaB7EjRo6pAijUklAAAAAPQAqQTQPQkaNHVIkcakEgAAAAB6YIunEssHdzw0s98ffZXWLO3f+cCOA0uyMJi5vQ8+tPeoLmTar7RGOHp7c3tbH6I4n6Oz5TctoO+had/YzKi+/5gICRo0dUiRxqQSAAAAAHpgPKnE2vrG8srq/MKSKfNA1zrmKVlv6tbtO7q2rUFTCZsgPBCvnQcX/fZe1nB0trry2O7sKIsHZh6cPWYfhfyjm/aVI3q1e861asvtzZ7w/cW5vTseyrOGcLdytvYMS69u6ejsTE2S4mSphGvWeG7JVMI2yN8EDE2CBk0dUqQxqQQAAACAHhhDKnHr9p0jr57O69yFeX3CmV9Y8p8dMJgoRsV2yF0ekIdVjI392Q2lmQ7RVGJp0c4acINzWelG2rvnzPryJiH/KZsj1AzvG56KcpGEn4PYs7J7sKlEuD6aShj2seQaEV7WkGcu9kH5/Wyu4j3Rt0uXMBQJGjR1SJHGpBIAAAAAemAMqYTkDmfOnl9eWTW1tr6hTzi3bt+RaRQnTr1hmpkH+kQr3vhZldbURAZ+EuE/9tuX1meqK92QOxiQPzj7dDAzYseBg+NKJWz0UEkTjs7O7DhwbJBUwrDHjbw5RvVdrdOuZfScMQgJGjR1SJHGpBIAAAAAemAMqcS5C/NHXj0dhBFVpoFpFsykqFX90b0O7MeeStgHpQPlZY6YTyVwgsP5i26CQ321TSVcCFLXOEslspgjkUoIuzI4mWpF3kPRMr9oPG20IEGDpg4p0phUAgAAAEAPbNVUQrhsIh8VN4383bg6EQ3sOHAskkrk3NC6vNLtsJgFkMUBKkwl/GG5N68hfKpBli9kyqHAUKlETDxraJVfaIUzI9y2/jwODEaCBk0dUqQxqQQAAACAHtjSqYSMk0upRGx4H47GS2P7UvrgtQxSCbv4wI6dOkFDjuIykSCV8Afz/nEbUon2whdiyDnInlumEraZZAd1J9ByBoTRumXpPcfAJGjQ1CFFGpNKYLPN7XnkC4dWdKFRqeXKoS/sOnRFF9ziI3siHTkAAAC2qVFTCckaTpx6Qxbv3HlfHtxz5HG+Um4t0fqGlzp5IR9g29G4LlbKG8zbZsVikD7kvPUyjC/G+e64u+fMIH9m/5x5nG1u1/u7ClMJ/3yq5WcWcXpcXSpkpzrQXInGWMTsYcypRO37jFYkaNDUIUUak0pg0zUECif3PPJIkUQE+YVZfGTPSfvI7mHXM62SDQAAAGwTI6USR7JfuiETJa4sXTMjpZs3b927d888MGUemEXzYOXqddNgeWX1zNnzspXbQSMzrt4xu1dGxfZx7R0l/dG4fVz6oX3NaNnNQciG+nn7vLEZjevKLAKITAeQ45qzMmcYjvMbQ4EaqQgg2+dgqYR9UM5HYu+k3WfQLFXld9WeTLv8AhESNGjqkCKNSSUwuvVXvv3tV9Z1oZaNEir2nJQkQknokMlTCZtH1Gg57QIAAAB9N4ZUQn77hllMphJr6xvtUwk3zrdTFfKxbtPIWUbjedZQyw6eS5tkKnFGxozqpWU5aHDt7X6yFGOrphKqtHPbMpbvlMibuTt7+QmkEiORoEFThxRpTCqB0a08s6vdzIWTe4rcIZ8x4a8s81OJ6AQK/zEAAAC2tzF8g8P/XkbDNzhMA9PMNJaJFQl2SGwG1aWxdDYaDx+XRuMRjaN9N/bWnKJU2ZA+G/N7R9Qdese1a0ppyDhTCbPexSVeKuGaDZ9K2Gebswb3trj24UuzR4m8NFKJkUjQoKlDijQmlcDoWqcS9+9fObTLZhD+VzBiqYRtVtjzhE0fDj3hUgxNIsxWuw49QyoBAAAAtVXvdnl0Nh8Sx8a64VC5UJsyVCsfWtu9+XMHyjGHe9bdCDM4otfMjMl3Hly0I/PKUVwlJyZY4WlksgG/Bg1ZGNEylTh6wCYawTtpN6kmCxl5D/MzyRvbfZqXYx4vL4WTSvKzwjAkaNDUIUUak0pgdK1Sibn4tzB2PXOo+oTedSKfCpE9OPnEnpPu8SHzwG8AAACAbW+rphIqH0u7EXs+yI9X3TC7PCCvcoNtr0GWAuRkNF6ZXFCkADpuj4/M/WkdzWzLylGKfEGEZ9uYSmRPVd4Ec6qyPty/PQf3fvqHsHu2K7NNqooDYRgSNGjqkCKNSSUwnNvr6+urWq//05/92T+9ni+ur9/WRnHB3S7zuRLB+nIqUYdUAgAAAM60pBIlbpC8cya7IWVKIpVYWrT3qsxzB7fzcsAhqUSw0ksl7AObO4yaSrgDhS8qP4rj0hk3cSP+tpRSCfei9NDBm+At5qlE8TIj75h7W2rfcPds+P6gPQkaNHVIkcakEhjKpUNf/PSn/ySrj/7O73zUW/x3P3pbm0UNnkoAAAAAKWNLJcx/l1dWTQXxhFmU9XKfy/mFbHzdSixQKIbu3g/8m8R2EmGbyUi+lCzYWQBm8wN7ixG+ylIAu6HbZORUInKqpTUuPXGDfz2r0ouKpBJBnOFenbzAorFpuePAf7d7zt9M/6D2RWlLd9BY+uB23vY1IkKCBk0dUqQxqQRG1+6+EidjEx72nNQ7TRgNqYR9KmbXoSuuJQAAALa9MaQSa9kNL6WC2RDzC0v5U6bkppitlUfpkVFxaTycf/ugfVV27iofzMtK2b8b5/uhgw7s7Xo5JTeAj1b7EXuxN8eeQB7BmF0FT5WCCT+VyPMLu1JPw3/fDLtDs7ltEJ6eH2EEWxn6MotD23NuEw+hlgQNmjqkSGNSCYxugLtdWuX04cqhXV70UE0lDj3xyK5nToZPWe6Gl6QSAAAAcMaQShhr6xvzC0tS1bkSsr46jaKFLJVwiUARFgTk2cj4uZ0sj8iH2V7cUA4U3Jq9R4v4Y+9Re4ZZVGGH66PNlTBKOYs9on3VmiDoypw9n9lj+vLlfOSJ5WO7d1bPpELzhbCle0NabC7KJ4yhSNCgqUOKNCaVwOjaphL29hC7Dl1x6YP7tRp2G7PyCfkVHEEqoXMr3BrmSgAAACBhPKnEFHND+siAv25kLkGALkyICwvqIpitxUUS03GqW5oEDZo6pEhjUgmMrvXv4JAQIUsfbB5xyEsivFTCfq3DTxyCwEIwVwIAAACFbZ9KAFuABA2aOqRIY1IJjMHd27fv6sMWvIjBfUcjyzOi0YOwT8WQSgAAAECRSgDdk6BBU4cUaUwqgU2Uhwv57S2TEyJE9CnmSgAAAKBAKgF0T4IGTR1SpDGpBAAAAIAeIJUAuidBg6YOKdKYVAIAAABAD5BKAN2ToEFThxRpTCoBAAAAoAdIJYDuSdCgqUOKNCaVAAAAANADpBJA9yRo0NQhRRqTSgAAAADoAVIJoHsSNGjqkCKNSSUAAAAA9ACpBNA9CRo0dUiRxqQSAAAAAHqAVALongQNmjqkSGNSCQAAAAA9QCoBdE+CBk0dUqQxqQQAAACAHiCVALonQYOmDinSmFQCAAAAQA+QSgDdk6BBU4cUaUwqAQAAAKAHSCWA7knQoKlDijQmlQAAAADQA6QSQPckaNDUIUUak0oAAAAA6AFSCaB7EjRo6pAijUklAAAAAPQAqQTQPQkaNHVIkcakEgAAAAB6gFQC6J4EDZo6pEhjUgkAAAAAPUAqAXRPggZNHVKkMakEAAAAgB4glQC6J0GDpg4p0phUAgAAAEAPkEoA3ZOgQVOHFGlMKgEAAACgB0glgO5J0KCpQ4o0JpUAAAAA0AOkEkD3JGjQ1CFFGpNKAAAAAOgBUgmgexI0aOqQIo1JJQAAAAD0AKkE0D0JGjR1SJHGpBIAAAAAeoBUAuieBA2aOqRIY1IJAAAAAD1AKgF0T4IGTR1SpDGpBAAAAIAeIJUAuidBg6YOKdKYVAIAAABAD5BKAN2ToEFThxRpTCoBAAAAoAdIJYDuSdCgqUOKNCaVAAAAANADpBJA9yRo0NQhRRqTSgAAAADoAVIJoHsSNGjqkCKNSSUAAAAA9MAWTyWWD+54aGa/P/oqrVnav/OBHQeWZGEwc3sffGjvUV3ItF9pjXD09ub2tj5EcT5HZ8tvWkDfQ9O+sZlRff8xERI0aOqQIo1JJQAAAAD0wHhSibX1jeWV1fmFJVPmga51zFOy3tSt23d0bVuDphI2QXggXjsPLvrtvazh6Gx15bHd2VEWD8w8OHvMPgr5RzftK0f0aveca9WW25s94fuLc3t3PJRnDeFu5WztGZZe3dLR2ZmaJMXJUgnXrPHckqmEbZC/CRiaBA2aOqRIY1IJtLe+8d784sq5C4tvnV+gKIqaxjI9mOnHTG+m/VoMfR1FUVNdyY7u5q3by8urC4vLXZU5ujkHPZuxGkMqcev2nSOvns7r3IV5fcKZX1jynx0wmChGxXbIXR6Qh1WMjf3ZDaWZDtFUYmnRzhpwg3NZ6Ubau+fM+vImIf8pmyPUDO8bnopykYSfg9izsnuwqUS4PppKGPax5BoRXtaQZy72Qfn9bK7iPdG3S5cwFAkaNHVIkcakEmhp5dr6xYXl5WtrXKxTFDWlJVfqph8zvZnp07R3K6OvoyhqqivZ0d28dXthcXlt/cbNW3e6KnN0cw6TCCbGkEpI7nDm7PnllVVTa+sb+oRz6/YdmUZx4tQbppl5oE+04o2fVWlNTWTgJxH+Y799aX2mutINuYMB+YOzTwczI3YcODiuVMJGD5U04ejszI4DxwZJJQx73MibY1Tf1TrtWkbPGYOQoEFThxRpTCqBNtY33pPPNvPfjRs3P/jgA30CAKaH6btMD5b3ZtUfJNLXAZh2yY5uedkMtLuMJKTMOZgz0XManzGkEucuzB959XQQRlSZBqZZMJOiVvVH9zqwH3sqYR+UDpSXOWI+lcAJDucvugkO9dU2lXAhSF3jLJXIYo5EKiHsyuBkqhV5D0XL/KLxtNGCBA2aOqRIY1IJtJGH7lyjA5h2ph8zvZnMhtBVGfo6AP3Q0NG5SQphRtBJmTPRcxqfrZpKCJdN5KPippG/G1cnooEdB45FUomcG1qXV7odFrMAsjhAhamEPyz35jWETzXI8oVMORQYKpWIiWcNrfILrXBmhNvWn8eBwUjQoKlDijQmlUAbMhtw48ZNXQaAaWZ6M9OnmZ5NlzP0dQB6o66jI5VImFwqIePkUioRG96Ho/HS2L6UPngtg1TCLj6wY6dO0JCjuEwkSCX8wbx/3IZUor3whRhyDrLnlqmEbSbZQd0JtJwBYbRuWXrPMTAJGjR1SJHGpBJoQ76myA8PAfSD6c1Mn2Z6Nl3O0NcB6I26jo5UoolkDSdOvSGLd+68Lw/uOfI4Xym3lmh9w0udvJAPsO1oXBcr5Q3mbbNiMUgfct56GcYX43x33N1zZpA/s3/OPM42t+v9XYWphH8+1fIzizg9ri4VslMdaK5EYyxi9jDmVKL2fUYrEjRo6pAijUkl0Ib5SKt+qgHA9Ip2a/R1APok2qeRStQ6kv3SDZkocWXpmhkp3bx56969e+aBKfPALJoHK1evmwbLK6tnzp6XrdwOGplx9Y7ZvTIqto9r7yjpj8bt49IP7WtGy24OQjbUz9vnjc1oXFdmEUBkOoAc15yVOcNwnN8YCtRIRQDZPgdLJeyDcj4SeyftPoNmqSq/q/Zk2uUXiJCgQVOHFGlMKoE2uFIH0DPRbo2+DkCfRPs0Uolaki/Ib98wi8lUYm19o30q4cb5dqpCPtZtGjnLaDzPGmrZwXNpk0wlzsiYUb20LAcNrr3dT5ZibNVUQpV2blvG8p0SeTN3Zy8/gVRiJBI0aOqQIo1JJdBGiyv1DyiKorZSJUS7Nfo6iqKmrZpE+zRSiSZr6xv+9zIavsFhGphmprFMrEiwQ2IzqC6NpbPRePi4NBqPaBztu7G35hSlyob02ZjfO6Lu0DuuXVNKQ8aZSpj1Li7xUgnXbPhUwj7bnDW4t8W1D1+aPUrkpZFKjESCBk0dUqQxqQTa4Eqdoqhpq4Rot0ZfR1HUtFWTaJ9GKpEwkbtdHp3Nh8SxsW44VC7UpgzVyofWdm/+3IFyzOGedTfCDI7oNTNj8p0HF+3IvHIUV8mJCVZ4GplswK9BQxZGtEwljh6wiUbwTtpNqslCRt7D/Ezyxnaf5uWYx8tL4aSS/KwwDAkaNHVIkcakEmiDK3WKoqatEqLdGn0dRVHTVk2ifRqpRMLkfgeHN5Z2I/Z8kB+vumF2eUBe5QbbXoMsBcjJaLwyuaBIAXTcHh+Z+9M6mtmWlaMU+YIIz7YxlcieqrwJ5lRlfbh/ew7u/fQPYfdsV2abVBUHwjAkaNDUIUUak0pMjcXDj87MPHlclzzHn5yZmdkXeWKMuFKnKGraKiHardHXURQ1bdUk2qeNmEqsXl9fXrkqZR4Hzw5U2zmVKHGD5J0z2Q0pUxKpxNKivVdlnju4nZcDDkklgpVeKmEf2Nxh1FTCHSh8UflRHJfOuIkb8bellEq4F6WHDt4EbzFPJYqXGXnH3NtS+4a7Z8P3B+1J0KCpQ4o0JpWYnIXnHp3JfeVw83VuGqkERVHUAJUQ7dbo6yiKmrZqEu3TRkklVq5eOz43dyxjHps1QZv2taVTCfPf5ZVVU0E8YRZlvdzncn4hG1+3EgsUiqG79wP/JrGdRNhmMpIvJQt2FoDZ/MDeYoSvshTAbug2GTmViJxqaY1LT9zgX8+q9KIiqUQQZ7hXJy+waGxa7jjw3+2e8zfTP6h9UdrSHTSWPridt32NiJCgQVOHFGlMKjEZLinwk4jFw4+OGEzUphKbgSt1iqKmrRKi3Rp9HUVR01ZNon3aKKnE8srVubm5c+feNg/Mf81j8yBo0762aCqxlt3wUiqYDTG/sJQ/ZUpuitlaeZQeGRWXxsP5tw/aV2XnrvLBvKyU/btxvh866MDerpdTcgP4aLUfsRd7c+wJ5BGM2VXwVCmY8FOJPL+wK/U0/PfNsDs0m9sG4en5EUawlaEvszi0Pec28RBqSdCgqUOKNCaVmICFw1+ZwOQFUgmKoqgBKiHardHXURQ1bdUk2qcNmkq8++7FV199VWdH1DNtTMtg2+baoqmEsba+Mb+wJFWdKyHrq9MoWshSCZcIFGFBQJ6NjJ/byfKIfJjtxQ3lQMGt2Xu0iD/2HrVnmEUVdrg+2lwJo5Sz2CPaV60Jgq7M2fOZPaYvX85Hnlg+tntn9UwqNF8IW7o3pMXmonzCGIoEDZo6pEhjUonxs/MkmtMDF1tkHn2u/GnhpllkvP2UUglp9Ohhm+KFIYj/zRFve++ggycmLa/Uz5z5lwMHDrzzzgXvw5KiKKqTSoh2ay37uoHKdImmYzTdY7CeoihqHNUk2qcNmkpcX/vN+QvvnD9/IVEX3jEtg22ba+umElPMDekjA/66kbkEAbowIS4sqItgthYXSUzHqW5pEjRo6pAijUklxu74vua7SAS3gSgtukBBsobKYpFKSL6QBw6lVKJ0dLdvaVdefzg/REstr9RJJSiK2jKVEO3WWvZ1AxWpBEVRk6wm0T5t0FTC1Ppvbpw+ffqtt86ZMg8uLSyePHnS/NdfadoEWyWLVALoJwkaNHVIkcakEmNnx//1kxFc0ODNYDBsdiDRg3tUmjrhJQ5ZKmH3X9pD0KYINbynSsnFEFpeqZNKUBS1ZSoh2q217OsGKlIJiqImWU2ifdoQqcTq9fWTJ0+edcyDd9+9ODc3Z/7rrxzi93GQSgD9JEGDpg4p0phUYuyaU4nIs/kkiDBTsIo5Dq7Zo1+phBp+4uAmR4TcU9nXOsL9t9TySp1UgqKoLVMJ0W6tZV83UJFKUBQ1yWoS7dNIJQBMlgQNmjqkSGNSibGLzIbwjCOVCPYepBK1h9aWQ2UTLa/U/VRCLsQPHjx47dpVeepHmVdeeSVv4F+pmzWmvWxOURQ1WiVEu7VkX1ftuPx+z3Ru2s1lHZ0pfxPz37xXNGUemMW8pSl/D/5RKIqiaqpJtE8jlQAwWRI0aOqQIo1JJcZP4oPgHpaZmm9wyJr4Nzh0TRZeyKwHbxdeKpEHHE2qR0lLXqnLR2N+dS6X2v/8z//83ns3zHpznZ1fiMsFulljnjINfv7zn8u2pszjfBOKoqjRKiHarSX7umjHJYumc3v11VdlpekM81ihfSph9pP3gf4eKIqi6qtJtE8jlQAwWRI0aOqQIo1JJSZCvknhz4lYPPyo3mzSPVc8VcoIXOJQTGQoRRhe4mAnUBRPeKmEzoYoconj+2RvC4f3Zbe6nHwq8dZbb5oL6/zaWi67/Wvr/MrbTyuqzSiKokaohGi31qava9NxSXghcUPLVMI0M4/Nf+WpavxBURQVqybRPo1UAsBkSdCgqUOKNCaVmJj86xJO/vsvrNJT4dQGSTSEv1V5HoQEEy5c8FMJS54SXj5R7HbQSMJoc6Vuylxwm4tvc2GdRxKm5IrczUcuSAP/gj64WKcoihqtEqLdWpu+rqHjMovaxzn5HIo2qUSwrSCVoCgqVU2ifRqpBIDJkqBBU4cUaUwqgTbaXKmbkqvqZ5991lyC5z/xC34AGJS55pbL7vwBRVHUOCoh2q217Oukv/InRMhK0wFK+uDPdGifSvhPURRFtasm0T6NVALAZEnQoKlDijQmlUAbLa/UzVW15BHmWjwPJvzL7mrJhfi7777z7LPP1iUXFEVRg1dCtFtr39eZjkv+G+3oZDGaSvihrb+V34yiKKp1NYn2aaQSACZLggZNHVKkMakE2mh/pS4X3PJzwvzi2w8pTJlL8PzKO/+JonynQ1ZSFEWNXAnRbq1lX5d3XEawRhbNg/z7F37c4KcVeTNJJWQP5lnTRp41n9R5t0lRFFVTTaJ92tCpxIkTto4fP/7aa6+9+uqr5r/msawklQBQkKBBQockaUwqgTZaXqn7PwaUK+x8PrO57DaPRf7jRCl5KlhJURQ1WiVEu7WWfZ0p6bjygNWUpA+uk/uRuUDPQwo/lTBlHkgbw1zW+zMsTElOIfydUxRF1VSTaJ82RCqx/psbp3/967l65lnTJtgqWaQSQD9J0KCpQ4o0JpVAG+2v1Icoc+Xt/3iQoihqHJUQ7dYm2tdRFEVNoJpE+7QhUokJFakE0E8SNGjqkCKNSSXQxkSv1H/uBCspiqJGq4RotzbRvo6iKGoC1STap5FKAJgsCRo0dUiRxqQSaGNyV+rvNP6GDoqiqGErIdqtTa6voyiKmkw1ifZppBIAJkuCBk0dUqQxqQTamMSVutz1je9OUxQ1mUqIdmuT6OsoiqImWU2ifRqpBIDJkqBBU4cUaUwqgTZaXKkDwDSJdmv0dQD6JNqnkUoAmCwJGjR1SJHGpBJogyt1AD0T7dbo6wD0SbRPI5UAMFkSNGjqkCKNSSXQBlfqAHom2q3R1wHok2ifRioBYLIkaNDUIUUak0qgDa7UAfRMtFujrwPQJ9E+jVQCwGRJ0KCpQ4o0JpVAG+cuLHKlDqBPTJ9mejZdyNDXAeiTaEdHKgFgsiRo0NQhRRqTSqCN+cUV86n2wQeJWz0DwFQwvZnp00zPpssZ+joAvVHX0ZFKAJgsCRo0dUiRxqQSaGN9471z7yz+ZuM9XQaAaWZ6M9OnmZ5NlzP0dQB6o66jW15eXVu/EQQEm1/mHMyZ6DmND6kE0D0JGjR1SJHGpBJoaeHKNblY56eIAKaX6cHkSt30abqqjL4OwLRr7uhu3rq9sLjcbTBhju6mbNzWcxofUgmgexI0aOqQIo1JJdCe+Wx7+53FcxfsnZMoiqKmsUwPZvqxukhC0NdRFDXVlezobt66vby8urC43FWZo08ikjBIJYDuSdCgqUOKNCaVwEDWN96T710Hn38URVFbv+Qr1tX5zFX0dRRFTWm17+h6iVQC6J4EDZo6pEhjUgkAAAAAPUAqAXRPggZNHVKkMakEAAAAgB4glQC6J0GDpg4p0phUAgAAAEAPkEoA3ZOgQVOHFGlMKgEAAACgB0glgO5J0KCpQ4o0JpUAAAAA0AOkEkD3JGjQ1CFFGpNKAAAAAOgBUgmgexI0aOqQIo1JJQAAAAD0AKnElrJ8cMdDM/tLo81jux96YPecLqCnJGjQ1CFFGpNKAAAAAOiBLZxKHJ194MGdBxd1aXzm9j740ANas8d05QQd2x0GDfW2SCph36K9R3Uhwv7RbMZbt31I0KCpQ4o0JpUAAAAA0APjSSXW1jeWV1bnF5ZMmQe61jFPyXpTt27f0bUtLC0uL+3fabODHQeWzLIdCedpQlh1Q2g7pG/duMJmBMG2dVW/z+Vju82rqI1XomfYXHufPzBTWdlY9uj6ZtZUOQohldhsEjRo6pAijUklAAAAAPTAGFKJW7fvHHn1dF7nLszrE878wpL/7EDBhGNHyDVzDXTWQ/5sOMKXOEOF0xBaTGGIzFywY/vSbo3UGF7Os9V8h/ZzJcotFw/MaPBRORn7VJAgRI5SXlnsZNDQpPF9QC0JGjR1SJHGpBIAAAAAemAMqYTkDmfOnl9eWTW1tr6hTzi3bt+RaRQnTr1hmpkH+sRostFy5Cf2pWG891P9UqBQDOMbDJVK2D0Xo/SGquQCTexxS9lEXSph15eiAfMOBCccf+3xVCKOuRLjJkGDpg4p0phUAgAAAEAPjCGVOHdh/sirp4Mwoso0MM2CmRTDyIb9daP68uQCb7DtjcZNmxahwNCpxGB5hzmZfHOz//IRdedLiwfMAy8LsHvwM478SyLBS6vEGe79CV+CQSrRJQkaNHVIkcakEgAAAAB6YMumEnZgHCQChh1RmxF4ZFBdsG38cXgxWSAfeJudtxlUb04qsbx01OYsNnowO39w596j/hHNzvO92a2yA5XPzTtoOYaovgR7tuU4Q/bpt/RfUaR9bZXjD7QnQYOmDinSmFQCAAAAQA9s1VRi0YzV5faW2Zg8myJRjP9rRFKJdEwQZQfqxZC7sYqzGnyuhBW82Fzt3mpTCS+FMcqJSTVVKTasSyVi7NkyV2KcJGjQ1CFFGpNKAAAAAOiBUVMJyRpOnHpDFu/ceV8e3HPkcb5Sbi0x0A0vs68bpAMCM4p2cw28lbvnstF+TSV+tl/JDiYyV8LIXp07n/BVhFUNEcoHDRIKPz6wT1VCCm3g75BUYrNJ0KCpQ4o0JpUAAAAA0AMjpRJHsl+6IRMlrixdMyOlmzdv3bt3zzwwZR6YRfNg5ep102B5ZfXM2fOyldvB4LwhtxcQmFF0EQR4cyXs6Nob/KcG26GhU4kgR4iX7llzk9ljfpqQc3sLzsHJgoyi8m3tU3I+wdmGs0hKLzCWSrR+LUXtOOD2gMFI0KCpQ4o0JpUAAAAA0ANjSCXkt2+YxWQqsba+MWAqUQywhT/MLsbY5fF8Zeydq0klgvkUxTDeH6irdCrRah5Bvue6XCAj5xZ5OeXG5XfAnqTdpNxGT8yulJd5zDQrZxlZ46b4xs1emd0b/KYPjEaCBk0dUqQxqQQAAACAHhjDNzj872U0fIPDNDDNTGOZWNFKMFPAjquzUbR7SgfGNamEHZznWUNdxfMLEYkJxpRKRNjTNudT3rlZObN7diayw6ZUQhf3+2di2nsN3Dmbw3mvrlUq4U7S7dO8zNKp2k2C9wrtSdCgqUOKNCaVAAAAANADW/Vul46LFbJxdTmhcD+xz0bF9qli3J6nEhVNUwBidOjepvLdxmKLJJsI2FcaJhrmBHYeXLTPVk67MZXIM47azMUdsXSe6VTC7bOU/rj2cvL28dIi4+QhSdCgqUOKNCaVAAAAANADWzmVcMNdb9ZDMQj3J00Y5cG8DshNmVF36anSYLs+vMi4HCQYnCfnSqR3G3BH0ZMshwv5sWIHzUIE3Twv2VzzlGqy4EiOUEoxEqlEcZQgNHErB3q9iJGgQVOHFGlMKgEAAACgB7ZwKpGFAi6S8IbQbn2RUBgaPRQ/tNf1xiipRJB9OKlUojKeTyiSF8tPJfzHbrflUEYygmy+Q6mxvA/VmRdCooTwdZX5r8J7VyM7dHsjlRiZBA2aOqRIY1IJAAAAAD0wtlTC/Hd5ZdVUEE+YRVkv97mcXyiP6Ou5KQ+VQbUbkJdyh+Z8oTSQLkUGqVTCjcbDACKVSsSDgNZsuOA2jycv9XlHkUpI6KDn4AId73zcTlqcYfaK3GkU75L36tye9Xzcn1T4h4KBSNCgqUOKNCaVAAAAANADY0gl1rIbXkoFsyHmF5byp0zJTTFbKE8icMqTJmT4LVX/k38dh9dUQypRkwI0phL2wSiDczu8NzsPsoCMBAHx/UsqYW9vaV5XKXTwwp3E6cn+tSpxjOW9mdX9ZJvP6jIGIUGDpg4p0phUAgAAAEAPjCGVMNbWN+YXlqSqcyVkfXUaRbea50rYMXbs2SKV8POOfE10MJ/ixQGzx6qzJHw1WYlOasjPpMztPzk/Ik1DE13COEnQoKlDijQmlQAAAADQA+NJJQCMQoIGTR1SpDGpBAAAAIAeIJUAuidBg6YOKdKYVAIAAABAD5BKAN2ToEFThxRpTCoBAAAAoAdIJYDuSdCgqUOKNCaVAAAAANADpBJA9yRo0NQhRRqTSmCzze155AuHVnShUanlyqEv7Dp0RRfc4iN76n/9EQAAALYbUgmgexI0aOqQIo1JJbDpGgKFk3seeaRIIoL8wiw+suekfWT3sOuZVskGAAAAtglSCaB7EjRo6pAijUklMLr1V7797VfWdaGWjRIq9pyUJEJJ6JDJUwmbR9RoOe0CAAAAfUcqAXRPggZNHVKkMakERrfyzK52MxdO7ilyh3zGhL+yzE8lohMo/McAAADY3kglgO5J0KCpQ4o0JpXA6FqnEvfvXzm0y2YQ/lcwYqmEbVbY84RNHw494VIMTSLMVrsOPUMqAQAAAEUqAXRPggZNHVKkMakERtcqlZiLfwtj1zOHqk/oXSfyqRDZg5NP7DnpHh8yD/wGAAAA2PZIJYDuSdCgqUOKNCaVwHBur6+vr2q9/k9/9mf/9Hq+uL5+WxvFBXe7zOdKBOvLqUQdUgkAAAA4pBJA9yRo0NQhRRqTSmAolw598dOf/pOsPvo7v/NRb/Hf/ehtbRY1eCoBAAAApJBKAN2ToEFThxRpTCqB0bW7r8TJ2ISHPSf1ThNGQyphn4rZdeiKawkAAIBtj1QC6J4EDZo6pEhjUgmMboC7XVrl9OHKoV1e9FBNJQ498ciuZ06GT1nuhpekEgAAAHBIJYDuSdCgqUOKNCaVwOjaphL29hC7Dl1x6YP7tRp2G7PyCfkVHEEqoXMr3BrmSgAAACCBVALongQNmjqkSGNSCYyu9e/gkBAhSx9sHnHISyK8VMJ+rcNPHILAQjBXAgAAAAVSCaB7EjRo6pAijUklMAZ3b9++qw9b8CIG9x2NLM+IRg/CPhVDKgEAAABFKgF0T4IGTR1SpDGpBDZRHi7kt7dMTogQ0aeYKwEAAIACqQTQPQkaNHVIkcakEgAAAAB6gFQC6J4EDZo6pEhjUgkAAAAAPUAqAXRPggZNHVKkMakEAAAAgB4glQC6J0GDpg4p0phUAgAAAEAPkEoA3ZOgQVOHFGlMKgEAAACgB0glgO5J0KCpQ4o0JpUAAAAA0AOkEkD3JGjQ1CFFGpNKAAAAAOgBUgmgexI0aOqQIo1JJQAAAAD0AKkE0D0JGjR1SJHGpBIAAAAAeoBUAuieBA2aOqRIY1IJAAAAAD1AKgF0T4IGTR1SpDGpBAAAAIAeIJUAuidBg6YOKdKYVAIAAABAD5BKAN2ToEFThxRpTCoBAAAAoAdIJYDuSdCgqUOKNCaVAAAAANADpBJA9yRo0NQhRRqTSgAAAADogS2eSiwf3PHQzH5/9FVas7R/5wM7DizJwmDm9j740N6jupBpv9Ia4ejtze1tfYjifI7Olt+0gL6Hpn1jM6P6/mMiJGjQ1CFFGpNKAAAAAOiB8aQSa+sbyyur8wtLpswDXeuYp2S9qVu37+jatgZNJWyC8EC8dh5c9Nt7WcPR2erKY7uzoywemHlw9ph9FPKPbtpXjujV7jnXqi23N3vC9xfn9u54KM8awt3K2dozLL26paOzMzVJipOlEq5Z47k1pxIN77a+Y+6FxN89+CRo0NQhRRqTSgAAAADogTGkErdu3zny6um8zl2Y1yec+YUl/9kBg4liVGyH3OHQt1xZQFBKHEqP46nE0qKdNeAG57LSHtQsmvXlTUL+U3b4XTO8b3gqqjKSd4N/swebSoTro6mEYR9LrhHhZQ155mIflN/P5qp5T2Q/fpBhX05dY2QkaNDUIUUak0oAAAAA6IExpBKSO5w5e355ZdXU2vqGPuHcun1HplGcOPWGaWYe6BOtVH9WX1pTExn4SYT/2G9fWp+prnQJRTAgf3D2aRsceLXjwMFxpRI2eqikCUdnZ3YcODZIKmHUxwHVd7VO+5YqclCXU1TeapRI0KCpQ4o0JpUAAAAA0ANjSCXOXZg/8urpIIyoMg1Ms2AmRa3qj+51YD/2VMI+KB0oL3NEexpFEBAczl90Exzqq20q4UKQusZZKpHFHIlUQtiVwclUK/IeigFTCfcdk2oAUZ+PQEnQoKlDijQmlQAAAADQA1s1lRAum8hHxU0jfzfoTUQDOw4ci6QSOZcIlFe6HRYzF7I4QIWphJ8mePMawqcaZPlCphwKDJVKxMSzhlb5hZZ/kjn3BkZPwJ55dBMoCRo0dUiRxqQSAAAAAHpgS6cSMk4upRKx4X04Gi+N7Uvpg9cySCXs4gM7duoEDTmKy0SCVMIfzPvHbUgl2gtfiCHnIHtumUrYZpId1J1A+xkQ7VvqqdY0Dt5thCRo0NQhRRqTSgAAAADogVFTCckaTpx6Qxbv3HlfHtxz5HG+Um4t0fqGl+5n794A247GdbFS3mDeNisW68bD3noZxhfjfHfc3XNmkD+zf848zja36/1dhamEfz7V8jOLOD2uLhWyU22ZSshGjbGI2cPYUwn3Doyeg2xTEjRo6pAijUklAAAAAPTASKnEkeyXbshEiStL18xI6ebNW/fu3TMPTJkHZtE8WLl63TRYXlk9c/a8bOV20MiMq3fM7pXRrH1ce0dJfzRuH5e+LFCTSrgf7GdD/erECjOK1pVZBFAM/nNyXHNW5gzDcX5jKFAjNXTP9jlYKmEflPOR2DvpMoXBqvSuuvcz+qfj1AUuUBI0aOqQIo1JJQAAAAD0wBhSCfntG2YxmUqsrW+0TyXcON9OVcgH6k0jZxmN51lDLTuSL22SqcQZGTOql5bloMG1t/vJUoytmkqo0s5ty2RGIG/m7uzlN6p99xSpRIIEDZo6pEhjUgkAAAAAPTCGb3D438to+AaHaWCamcYysSLBDonNoLo0ls5G4+Hj0mg8onG0Lz/kj1Q2pM/G/N4RdYfece2aUhoyzlTCrHcDfi+VcM2GTyXss81Zg3tbXPvwpbkAInhptk3yj4BUooEEDZo6pEhjUgkAAAAAPbBV73Z5dDYfEtcM1MspQK42ZahWPrQOx8zlmEOG3PZGmMERvWZze20u4E3ECKrVgLxu6G53a98EDRqyMKJlKnH0gJvCUH4n7SZBsuCR9zA/k7yx3ad5Oebx8pI/LcK1j/0x5cpHR4UEDZo6pEhjUgkAAAAAPbBVUwmVj2bdiD0f5MerbpidGhK7wbbXIEsBcjIar8wFKFIAHbfneUGJP62jmW1ZOUqRL4jwbOXoNalE9lTlTTCnKuvD/dtzcO+nfwi7Z7sy26RMno2HRCr+ziAnQYOmDinSmFQCAAAAQA9MSypR4obBO2eyG1KmJFKJpUV7r0o76nZDerfzcsAhqUSwUlrmm9jcYdRUwh0ofFH5URyXzriJG/G3pZRKuBelhw7eBG8xTyWKlxl5x9zbEn/D3bsXvjklsdcFnwQNmjqkSGNSCQAAAAA9MLZUwvx3eWXVVBBPmEVZL/e5nF/IxtetxAKFYojr/cC/SWwnEbaZjORLyYJ+PeHA3mKEr7IUwG7oNhk5lYicamlNMf6PfWkikkoEcYZ7dfICi8am5Y4D/93uOX8z/YPaF6Ut3UErAYTbc3GgCHvajQ0gQYOmDinSmFQCAAAAQA+MIZVYy254KRXMhphfWMqfMiU3xWytPEqPjIrdkDgb87tB+2BV2bmrfAgtK2X/bpzvhw46sLfr5ZTcAD5abVMJOYr3Au0J5BGM2VXwVCmY8FOJPL+wK/U0/PfNsDs0m9sG4en5EUawlaEv0z90E3ee1bAGPgkaBkIqAQAAAKAHxpBKGGvrG/MLS1LVuRKyvjqNooUslQh/8l8mz0bGz+1keUQ+zPbihnKg4NaYAXYef+w9as8wG3Lb4Xp1+G0bt08lyjmLPaJ91Zog6MqcPZ/ZY/ry5XzkieVju3e2CAI0XwhbjjVHYKJEG5o0DIJUAuNy5877Gxs3r69tXL22vnJ1bXnl+qaVOZw5qDm0OYH8VzgBAABgWxlPKjHF3JA+MuCvG5lLEKALE+LCgl6M5PMpG2imScMgSCUwonv3PtjYuLnJMURzmZMxp2ROTE8RAAAA28C2TyWALUCThkGQSmAUN967VcQBy9dXr/9m48Z7d+68/8EHNhG4d+/e7Tt3zJqr19YWFpcXL69cvnL1ytK1peVVU8WGI9fKVXng9rlcrDenJ+cJAACA3iOVALqnScMgSCUwnPffv7t6/Tcy+L+2+ptbt27rEzXu3bu3vr4RZBN5fDCB0rkb5iTNqepJAAAAoL9IJYDuadIwCFIJDOHW7Tv6lY3l6zdTeYTv3r1711bN37qlxcsrkw8mdN6EOdUBb5AMAACA6UMqAXRPk4ZBkEpgUGaEL2P+1dXf6KoB/eY3Ny4tXFlYXL585erEg4msCCYAAAD6jVQC6J4mDYMglcBA3n//rsySWL2+rquGsnHjvflLlzcrmLD7N6fNVzkAAAB6jFQC6J4mDYMglcBA5F4SQ8+S8K2vb0gwsRlf5XBlTl6PDQAAgN4hlQC6p0nDIEgl0J7+xo3l67o8suWVa/OXLm/mPSb4rRwAAAB9RSoBdE+ThkGQSqCle/c+kOH9QLe3bHb37r2L84uXFq5s5g0mzAvRwwMAAKBHSCWA7mnSMAhSCbS0sXHTDOmvjeO7G77V1bWL85v2PQ57RwzzQvTYAAAA6BFSCaB7mjQMglRikx3fN+M8eVxXTA25yeWt8U2UEHfv3j1/Yb7ldImjh/b95Fi4cvnN//HU0//jzWBlfZkXoscGAABAj5BKAN3TpGEQ2zaVyNKB0ETTgoXnHp3GPMK4c+d9O6Qf3x0lfJcvL7edLvHm/3hq3759h457K8//96f3PXXoeNtUwt1dwrwcPTYAAAD6glQC6J4mDYNgrsRmJgU2CvnK4QVdmiby9Y0J/Q6L69fX33l34dLCUqu7S9hg4un//qYuHj0UhBStii9xAAAA9A+pBNA9TRoGQSpBKtHG9bUNO5i/8Z4uj9XNm7fOX5ifv3S5KZWQWRLNWn2Pw+7fvBw9NgAAAPqCVALoniYNgyCVCFOJ40/OzDx6+PhhszZbv3D4K+7bHdajhxddM0NaLtr/iUefKwKH4hsiGkMUzax9ekB39IwfWFROQxKN43l719jbvByseEcrzmrR7u3J4/Kc90JauHpt3QzmJ/TFh7t37557+92L8/orQr0EoamOHtr31M/PBytblnk5emwAAAD0BakE0D1NGgZBKhFLJUoBwcJzT+YDeJc1ZI115K+Lbj861C/tc/Hw4WzvwVyJ0t6iOw8b5xFDljpouuEWS0lHcXR7WrKVe+wfsT251eUHH0zqd2q+de6d/NYSfnzQUMOlEitX5b/c8BIAAKBvSCWA7mnSMAhSiWgqUTtwtwP7bJaBbenPOHDLbvwfpA+50nqduSALothD9TSCfZYiDHkV+qzdMr6hn1AMSIb0ujABb517592LiwP9ftBR5kqY0gMDAACgL0glgO5p0jAIUolYKhF+u8FFAAVtHbYMM4WiZaaULITpgeG+KiJTHiqnEaQSXgxhFa9CJ0SUealEcMiWZK7E3bv3dHms7t69m0oljv9Ebx2Rkrq1BHMlAAAA+opUAuieJg2DIJVIpRISMGQN/IF9rKU/EyHPMvK9b1YqUdqwMEIqIfeVuHnzli6P1Xs3bw48V+LYQZtBDP7bN6S4rwQAAED/kEoA3dOkYRCkEolUIrKYtQ6DA7ccfj/CCxpMCz9ZiGQEdg81O2+dSsRPwxkhlZDfwXF9bSK/GXR19fqAd7u0Uyd+cmy4L3HwOzgAAAD6iVQC6J4mDYMglUikEqWRvH2uTSpxfF++w/pUQha9Q5eeDXfePpWQ3Rbbmqf0iRFSiY2Nm2YwvzKZ2zFcunT57fMX5y/ZVCI9UcL9itA8jDh6aJgZE+bl6LEBAADQF6QSQPc0aRgEqUQildAG4snj/sC+PpWQ8b/KIgkjSBYMb+ellqOkEoa/22LexAipxJ0775vB/NLS6r17Y761xN27d984+/b5C/OXFq5cvnK1KZVwecS+fQePBusH+jbHsv3vhH7FKQAAADpEKgF0T5OGQZBKoCW54eXq9THfkWFl5ZrcVOLSwlLtTSXq8giv3vz507ZJ6m6XprjVJQAAQC+RSgDd06RhEKQSaEm+xHFlrNMl7t69++ab5/Ovb7S7qcQoZYMVvr4BAADQS6QSQPc0aRgEqQRaunfvAxnbr1wd290lFhavvPnWhXfeXbi0sJT4+sb4yrwQPTwAAAB6hFQC6J4mDYMglUB7N967ZUb1S0urv/nNDV01gmvXrp998/z5C/P5RInJphLujhLmJejhAQAA0C+kEkD3NGkYBKkEBrJ6/TdmbH/5ytWNG+/pqqGsra2/cfZt+YWgC4vLmzNRwpy8Hh4AAAC9QyoBdE+ThkGQSmAg779/V257uXh5eX19Q9cO6Nq16xJJyE0uJx9J2J2b0zYnr2cAAACA3iGVALqnScMgSCUwqFu378ho//KVq8sr1+7eHeDml3fv3l1YvHL2zfNZJHFlM7674cqctp4EAAAA+ohUAuieJg2DIJXAEMwIX2ZMLC2tXlq4srq6dvduYhqCabCycu3NN8+/+daF8xfmL85fvrSwNPFIwt1LwpwqkQQAAEDvkUoA3dOkYRCkEhjO++/flXtMmLp85dq7FxcvX16+fn395s1beUJhHrx38+bq6vVLly6/cfbtt8698/b5i++8uzB/Se8lMclIwoYmpsxJ8sUNAACA7YBUAuieJg2DIJXAKOS3ckhduXJtYXH54vzi+Qvzb59/961z70ide/vdt89fNCvfvbg4f0mnSMi9JMYVSaxclQdub25+hBS/cQMAAGD7IJUAuqdJwyBIJTCie/c+2Ni4KV/o2CJlTsackjkxPUUAAABsA1s8lVg+uOOhmf3+6Ku0Zmn/zgd2HFiShcHM7X3wob1HdSHTfqU1wtHbm9vb+hDF+RydLb9pAX0PTfv6ZuZVzx6Th4sHZh7ceXBRFsoSB0JbmjQMglQC43LnzvsbGzevr21cvba+ySGFOZw5qDm0OQFzGnpCAAAA2E7Gk0qsrW8sr6zOLyyZMg90rWOekvWmBr9v2aCphE0QHoiXHVd77b2s4ehsdeWx3dlR7Jg8G5+X+Uc37StH9Gr3nGvVltubCwIW5/bueCjPGsLdytlmqUF+PktHZ2dqkhQnSyVcs+i52RPYMXtMkwjbPtrMHrEILBrefKnsbXQvpP70tiNNGgZBKgEAAACgB8aQSty6fefIq6fzOndhXp9w5heW/GcHDCaKDMINgINRbrmygKCUOJQex1OJpUU7a8CNumWlDsLN+vImIf8pO4yviR4anopykYSfg7jRvtmDHcyH6+1LqKQShn1c5AUBL9mJZi72QOVt63OEytnWCE6+eojtTZOGQZBKAAAAAOiBMaQSkjucOXve3bFsdW19Q59wbtnfkG+nUZw49YZpZh7oE61442dVWlMTGfhJhP/Yb19an6mudAmFn33Ymn3aDsW92nHg4LhSiehw/ejszI4Dx4KBfWMqYdjjRt4co/qu+uxuq8/Wpw+2ffoFhifv3thBwpp+06RhEKQSAAAAAHpgDKnEuQvzR149HYQRVaaBaRbMpKhlR9rlkb+OYMeeSrhBdbTMEctTCYLD+Ytu0F5fbYffjWP1bGCfxRzZS6hJJYRdGZxMtYqt3LsRPwF3bpX9W0dn9+5fjqz3hamErGG6hNKkYRCkEgAAAAB6YKumEsJlE3kG0TTyd6PlRDSw48CxSCqRc6Pu8kq3w2LknMUBKkwl/MG8NwgPn2qQ5QuZUgQzXCoRU95toT53UPIWlcOFTFP8YfZZTSXc+cdOYzvSpGEQpBIAAAAAemBLpxIy0C2lErHhfTgaL43tS+mD1zJIJeziAzt26gQNOYrLRIJUwh9F+8dtSCXaC1+IIecge26ZSthmEgfUnUA0lZB3oCGSUPbo8oeSH6jFVtE3pO4PdBvSpGEQpBIAAAAAemDUVEKyhhOn3pDF/Fe73XPkcb5Sbi3R+oaX8pP5YoAt4+F4eQNj26xYDNKHnLdeRtfFON8dd/ecGeTP7J8zj7PN7Xp/V2Eq4Z9PtdLDbz2uLhWyU22ZSshGsRQgZ/ZQTiXqDl3Dy0oiSUpU7HzabrsNaNIwCFIJAACA/397d9cTRxWAcdyvQUz3Sg2NFybWVC3aQivUF5oSqaIYQYQulAV2v0XDLV/DfhEDiZcm3nhDMAJaaZrUGxLP68w5Z87M7sDiwtn/LyftMnt2Xg6bJs/DsAWQgHO1Ej/b/3RD3yjx5+HfIim9evXv6empeCCGeCC+FA+O//pHTDg6fv7rb7/rV6kdVBI5dml7R/9UXz4u/URJN9zKx87dDaWthMrVNuoXb6wQKd1stBVAHv4z+rjirMQZhjm/shQoIasBvyzw2X3WayXkA78fKV9Juedgcji8FRC8g+q2wh/mimILor5ZdVcpTaZpqINWAgAAAEAC+tBK6P99Q3zZtZU4efGy91ZC5Xx5q0IW1Ksysw7GWddQSiZ57yVWoc6wRJzWM/1crebL/dgW47K2Eoa3czkz1krkoucvN3ZtJdwJzkFjO1RrWHeV0mSahjpoJQAAAAAkoA+/weH+XkbFb3CICWKamKxvrOhC5luRV70sbdN4+NgLxhGVaT/24301bFq2Sds5otmhc1y5xWtDoqm+i7LzFNtV1Lf7FGeipp29lZDPVq1YfEK0RPAOSitxVqZpqINWAgAAAEACLuunXe5uqzRbEdRL7okobRmKI8vDcm/uvQNe0tbPqg/CDI7oTPtlR6Zx50aMYFTfmGCEp2HJ3cpFMMHelhE9thK7z1RN4K+kfElVHeCWPploieAd9AytRL7OQ800DXXQSgAAAABIwGVtJYws1qrEHkT9cJTFbD+QF8nA7E6wLUBGTSjm5zxUm5Cf9QWeaMKPkjOLKT3I8+HZVrYSeU0QLII4VVsfBPuX4hfS91ai95VJnmka6qCVAAAAAJCAq9JKeFQ8Xm3aD6TspksrcfiH/KzKrHeIZG9VBFQEcvlApuvzthLqQOFFebFfXYu+cSO+LF4roS7KHDpYhKq+IF6OlGzPDrr3VJcguiHKR9lRIu3PEDNNQx20EgAAAAAS0LdWQvx5dPxcjKCeEF/q7fpzLvcPimm3QqxQyKO78wP/Kl1aCUsFfhWkvWZBJe3mT89EhA7KBRvI5QvVS87dSkRO1dui2hOV7c1ZeRcVaSXyEiG/On2B+WQxM5+mtkdXVTcOhQtR8+U+5cmE90o4iq1E/n0ErQQAAACAIdWHVuLEfuClHsHdEPsHh9lTYugPxeyZn9LNj+LdcKvCto3KKrTXG4Wdq5GldDeKq5zvlg4m2Od5W7YSZg/B6LWVKKT3POfrnQdPecWE20pk/UXWGvjrJphbFeQEc3q6ucibAue1ajjlRUavebGLCYWthPeNg2ka6qCVAAAAAJCAPrQSwsmLl/sHh3oU75XQ24u3UfTAthKqEYimYkk/G6buntk+Ikv4Tt3gJ2e1RSTwrP7Y2ZVnaDP5+e+VEPy4Lo4or9o0CGZjRp7P9p65fH0++omjvaer3ZsCW6PImcWL7Un1gcz+9fDOXx6OGyVypmmog1YCAAAAQAL600pcYSqNRwK/qioieVsXAeaLC6LCfFkFkwC15j2UJkPENA110EoAAAAASMDQtxLAJWCaBmsmxjxn0UoAAAAASACtBDB4pmlwmCrCMlsdtBIAAAAAEkArAQyeaRp8ppCIVRICrQQAAACABNBKAINnmoaCskpCoJUAAAAAkABaCWDwTNNQB60EAAAAgATQSgCDZ5qGOmglAAAAACSAVgIYPNM01EErAQAAACABtBLA4JmmoQ5aCQAAAAAJoJUABs80DXXQSgAAAABIAK0EMHimaaiDVgIAAABAAmglgMEzTUMdtBIAAAAAEvDayNTERYzRH8evP76Q8fbjiRvNqQ+bn481v3h/4cEb01Ov378bHP3/HKNjX3Y6ne+WO9+viL871yYWG+OL18YXGncW3vl06Ulrq3FrvvHBt42bc433vn7w1cpWu72yujn9qHlv+oc3bzyUr7HaYrTzMbuw0XyyNb/UmltcX1huTc81P3u0MjO/NjmzuLHZaYmx0V7faD/8pnn93Vtv3Z8MTozBYDCu4Bg3Y1KPOyOf6HF75N7tkbsfj0x8NHp7zPyj2U3b2lI2Nzc3lFartb6+vra21mw2Z2dnl4E+Ee868e6qRb9XxZtTPwAAYOh0Ov8BmeNM8YTe7tIAAAAASUVORK5CYII=;" vertex="1" parent="1">
          <mxGeometry x="120" y="190" width="1415" height="754" as="geometry" />
        </mxCell>
        <mxCell id="Cru0Noi3GC09ZyKnsuBZ-2" value="" style="rounded=0;whiteSpace=wrap;html=1;fillColor=none;strokeWidth=3;strokeColor=#1890FF;dashed=1;" vertex="1" parent="1">
          <mxGeometry x="120" y="190" width="1410" height="754" as="geometry" />
        </mxCell>
        <mxCell id="Cru0Noi3GC09ZyKnsuBZ-3" value="" style="rounded=0;whiteSpace=wrap;html=1;strokeColor=none;fillColor=#dae8fc;opacity=20;" vertex="1" parent="1">
          <mxGeometry x="120" y="190" width="1410" height="50" as="geometry" />
        </mxCell>
        <mxCell id="Cru0Noi3GC09ZyKnsuBZ-4" value="" style="rounded=0;whiteSpace=wrap;html=1;strokeColor=#d6b656;fillColor=#fff2cc;opacity=20;" vertex="1" parent="1">
          <mxGeometry x="120" y="240" width="320" height="110" as="geometry" />
        </mxCell>
        <mxCell id="Cru0Noi3GC09ZyKnsuBZ-5" value="" style="rounded=0;whiteSpace=wrap;html=1;strokeColor=#b85450;fillColor=#f8cecc;opacity=20;" vertex="1" parent="1">
          <mxGeometry x="440" y="240" width="1090" height="700" as="geometry" />
        </mxCell>
        <mxCell id="Cru0Noi3GC09ZyKnsuBZ-6" value="" style="rounded=0;whiteSpace=wrap;html=1;strokeColor=#82b366;fillColor=#d5e8d4;opacity=20;" vertex="1" parent="1">
          <mxGeometry x="120" y="350" width="320" height="590" as="geometry" />
        </mxCell>
      </root>
    </mxGraphModel>
  </diagram>
</mxfile>
